<svg xmlns="http://www.w3.org/2000/svg" width="113" height="30" fill="none"><path fill="#5F646D" d="M15.6 30c8.284 0 15-6.716 15-15a14.94 14.94 0 0 0-3.61-9.76L5.839 26.39a14.941 14.941 0 0 0 9.76 3.61Zm9.758-26.392A14.941 14.941 0 0 0 15.6 0C7.315 0 .6 6.716.6 15a14.94 14.94 0 0 0 3.607 9.758l21.15-21.15Z"/><g fill="#5F646D" clip-path="url(#a)"><path d="M102.545 23.585c1.536 0 2.324-.365 2.669-1.21l.077-.21-3.629-9.716h3.36l1.786 5.741 1.862-5.74h3.245l-2.515 6.738-1.191 3.188c-.979 2.65-2.419 3.859-4.896 4.09l-.768-2.88Zm-4.742-11.231.25 1.996c.826-.979 2.016-1.69 3.072-1.996l.288 3.264c-1.21.019-2.304.307-3.206.94v5.491h-3.13v-5.932l-.403-3.476 3.13-.287ZM87.038 18.44v-3.303h-1.306V12.45h1.383l.211-2.342 2.842-.27v2.612h2.803l-.288 2.688h-2.515v3.014c0 .826.345 1.21.94 1.21.346 0 .845-.096 1.364-.403l1.075 2.477c-.826.537-1.843.806-2.938.806-2.131 0-3.571-1.152-3.571-3.802Zm-6.114-2.784 1.286.307c1.824.442 2.765 1.383 2.765 3.034 0 1.94-1.42 3.245-4.013 3.245-1.497 0-2.957-.365-4.166-1.075l1.017-2.266c1.076.538 2.112.845 3.053.845.634 0 .941-.154.941-.5 0-.307-.134-.403-.672-.537l-1.286-.307c-1.844-.442-2.765-1.363-2.765-2.9 0-1.939 1.401-3.244 3.917-3.244 1.459 0 2.745.403 3.878 1.075l-1.017 2.266c-.999-.576-1.863-.845-2.784-.845-.557 0-.826.134-.826.403s.154.384.672.5Zm-7.486-4.186a1.818 1.818 0 0 1-1.805-1.823c0-.999.806-1.805 1.805-1.805 1.017 0 1.824.806 1.824 1.805 0 .998-.807 1.824-1.824 1.824Zm1.574.884v9.696h-3.13v-9.408l3.13-.288Zm-11.15 6.086v-3.303h-1.305V12.45h1.382l.211-2.342 2.842-.27v2.612h2.803l-.288 2.688h-2.515v3.014c0 .826.345 1.21.94 1.21.346 0 .845-.096 1.364-.403l1.075 2.477c-.826.537-1.843.806-2.938.806-2.13 0-3.57-1.152-3.57-3.802Zm-5.865-6.086.25 1.996c.825-.979 2.015-1.69 3.071-1.996l.288 3.264c-1.21.019-2.304.307-3.206.94v5.491h-3.13v-5.932l-.403-3.476 3.13-.287ZM43.218 22.05h-3.533l5.377-13.44h3.13l5.471 13.44H49.92l-.768-1.978h-5.165l-.768 1.977Zm1.805-4.762h3.11l-1.555-4.512-1.555 4.512Z"/></g><defs><clipPath id="a"><path fill="#fff" d="M39.6 0h72.6v30H39.6z"/></clipPath></defs></svg>