<svg xmlns="http://www.w3.org/2000/svg" width="99" height="30" fill="none"><path fill="#5F646D" fill-rule="evenodd" d="M10.118.96C2.519 3.85-1.402 12.747 1.361 20.284L15.372 6.272 10.118.96Z" clip-rule="evenodd"/><path fill="#5F646D" fill-rule="evenodd" d="m10.062.96 14.067 14.01 5.255-5.31C26.429 2 17.729-1.852 10.062.96ZM6.671 14.973l-5.31 5.31c2.916 7.67 11.806 11.477 19.378 8.701L6.67 14.973Z" clip-rule="evenodd" opacity=".5"/><path fill="#5F646D" fill-rule="evenodd" d="m29.383 9.717-14.01 14.011 5.31 5.31c7.463-2.942 11.737-11.73 8.7-19.321Z" clip-rule="evenodd"/><g fill="#5F646D" clip-path="url(#a)"><path d="M89.628 21.9v-9.69h2.548v.8c.732-.658 1.637-.987 2.716-.987.756 0 1.42.168 1.99.503a3.407 3.407 0 0 1 1.358 1.357c.322.57.483 1.24.483 2.01V21.9h-2.548v-5.636c0-.632-.18-1.128-.54-1.488-.359-.372-.849-.558-1.469-.558a2.47 2.47 0 0 0-1.153.26 2.19 2.19 0 0 0-.837.707V21.9h-2.548Zm-6.788 3.98c-.744 0-1.463-.08-2.157-.241a7.618 7.618 0 0 1-1.88-.651l.894-1.972a7.76 7.76 0 0 0 1.562.577 6.416 6.416 0 0 0 1.525.186c.757 0 1.327-.162 1.712-.484.396-.323.595-.806.595-1.45v-.764a4.386 4.386 0 0 1-2.66.875c-.918 0-1.748-.217-2.492-.651a5.132 5.132 0 0 1-1.767-1.805 4.956 4.956 0 0 1-.651-2.51c0-.918.216-1.749.65-2.493a4.931 4.931 0 0 1 1.805-1.767c.756-.446 1.6-.67 2.53-.67.47 0 .93.069 1.376.205a4.96 4.96 0 0 1 1.246.577v-.633h2.51v9.672c0 1.277-.415 2.263-1.245 2.958-.819.694-2.003 1.041-3.553 1.041Zm-.019-6.082a3.53 3.53 0 0 0 1.284-.223c.384-.161.713-.384.986-.67v-3.794a2.777 2.777 0 0 0-1.005-.633 3.19 3.19 0 0 0-1.246-.241c-.533 0-1.01.124-1.432.372a2.643 2.643 0 0 0-1.005.986 2.636 2.636 0 0 0-.372 1.394c0 .534.118 1.011.354 1.433.248.421.583.756 1.004 1.004.434.248.912.372 1.433.372ZM73.426 21.9v-9.69h2.548v9.69h-2.548Zm1.265-10.844c-.397 0-.738-.143-1.023-.428a1.396 1.396 0 0 1-.428-1.023c0-.41.143-.75.428-1.023a1.396 1.396 0 0 1 1.023-.428c.41 0 .75.143 1.023.428.285.273.428.614.428 1.023 0 .397-.143.738-.428 1.023a1.357 1.357 0 0 1-1.023.428ZM62.067 21.9l3.72-4.93-3.627-4.761h2.958l2.139 2.883 2.12-2.883h2.865l-3.572 4.724 3.795 4.967h-2.976L67.2 18.812 64.913 21.9h-2.846Z"/><path d="M57.68 22.085c-.968 0-1.848-.223-2.642-.67a5.091 5.091 0 0 1-1.86-1.804c-.458-.756-.688-1.606-.688-2.548s.217-1.792.651-2.548a5.032 5.032 0 0 1 1.804-1.804c.757-.447 1.6-.67 2.53-.67.93 0 1.755.23 2.474.688a4.807 4.807 0 0 1 1.692 1.86c.422.781.633 1.668.633 2.66v.67h-7.18c.112.384.292.731.54 1.041.26.31.576.552.948.726.385.173.794.26 1.228.26.434 0 .83-.068 1.19-.205.372-.136.688-.328.949-.576l1.674 1.525a6.192 6.192 0 0 1-1.842 1.06c-.62.223-1.32.335-2.101.335Zm-2.623-5.99h4.706a2.371 2.371 0 0 0-.484-1.004 2.297 2.297 0 0 0-.818-.688 2.095 2.095 0 0 0-1.042-.26c-.397 0-.756.08-1.079.242a2.28 2.28 0 0 0-.818.688 2.88 2.88 0 0 0-.465 1.023ZM42.07 19.5h2.268c.583 0 1.123-.1 1.618-.298.509-.21.95-.502 1.321-.874a3.71 3.71 0 0 0 .874-1.302 4.092 4.092 0 0 0 .316-1.618c0-.583-.105-1.123-.316-1.619a4.026 4.026 0 0 0-.874-1.32 4.026 4.026 0 0 0-1.32-.874 4.094 4.094 0 0 0-1.619-.317H42.07V19.5Zm-2.698 2.399V8.879h5.004c.98 0 1.884.167 2.715.502.83.323 1.556.781 2.176 1.377a6.433 6.433 0 0 1 1.451 2.083c.36.793.54 1.649.54 2.567 0 .93-.174 1.785-.521 2.566a6.356 6.356 0 0 1-1.47 2.065 6.917 6.917 0 0 1-2.176 1.376c-.83.323-1.736.484-2.715.484h-5.004ZM98.053 9.837v.142c0 .227-.031.43-.093.61a1.333 1.333 0 0 1-.26.462 1.13 1.13 0 0 1-.402.29 1.28 1.28 0 0 1-.515.1 1.29 1.29 0 0 1-.514-.1 1.155 1.155 0 0 1-.402-.29 1.35 1.35 0 0 1-.265-.461 1.885 1.885 0 0 1-.092-.611v-.142c0-.228.03-.432.092-.61.062-.181.148-.335.26-.462.114-.127.248-.224.403-.291.155-.067.327-.101.514-.101.189 0 .36.034.515.1.156.068.29.165.402.292.113.127.2.28.262.461.063.18.095.383.095.611Zm-.622.142v-.146c0-.158-.014-.298-.043-.418a.906.906 0 0 0-.127-.304.549.549 0 0 0-.482-.248.554.554 0 0 0-.48.248.934.934 0 0 0-.125.304c-.029.12-.043.26-.043.418v.146c0 .157.014.296.043.418a.93.93 0 0 0 .127.306.566.566 0 0 0 .205.186.58.58 0 0 0 .277.064.55.55 0 0 0 .48-.25.96.96 0 0 0 .125-.306c.029-.122.043-.261.043-.418Zm-3.29-1.565V11.4h-.613V8.414h.613ZM90.79 11.4h-.65l.005-.48h.646a.729.729 0 0 0 .408-.109.672.672 0 0 0 .25-.322c.057-.14.086-.31.086-.51v-.146c0-.153-.016-.288-.05-.404a.802.802 0 0 0-.14-.293.592.592 0 0 0-.232-.178.766.766 0 0 0-.316-.062h-.669v-.482h.669c.2 0 .382.034.547.103.167.067.312.163.433.289.122.126.216.276.281.45.067.175.1.368.1.581v.142c0 .212-.033.405-.1.58a1.246 1.246 0 0 1-.714.74c-.166.068-.35.101-.553.101Zm-.3-2.986V11.4h-.616V8.414h.615Zm-2.618 0h.613v1.973c0 .23-.05.423-.148.58a.911.911 0 0 1-.404.355c-.17.08-.368.119-.59.119-.223 0-.421-.04-.595-.119a.924.924 0 0 1-.406-.355 1.085 1.085 0 0 1-.146-.58V8.414h.615v1.973a.74.74 0 0 0 .064.328.403.403 0 0 0 .183.187c.08.04.175.06.285.06.112 0 .207-.02.285-.06a.39.39 0 0 0 .18-.187.734.734 0 0 0 .064-.328V8.414Zm-3.8 0V11.4h-.613V8.414h.613Zm.919 0v.482h-2.436v-.482h2.436Zm-4.17 2.205a.395.395 0 0 0-.024-.144.271.271 0 0 0-.087-.119.756.756 0 0 0-.178-.108 2.514 2.514 0 0 0-.297-.111 3.738 3.738 0 0 1-.386-.148 1.585 1.585 0 0 1-.32-.19.86.86 0 0 1-.217-.257.707.707 0 0 1-.078-.338.7.7 0 0 1 .082-.339.78.78 0 0 1 .23-.262c.098-.074.214-.13.348-.17.136-.04.284-.06.445-.06.22 0 .412.04.576.119.165.08.292.188.382.326a.837.837 0 0 1 .137.474h-.61a.46.46 0 0 0-.056-.23.375.375 0 0 0-.164-.158.585.585 0 0 0-.275-.057.636.636 0 0 0-.267.049.356.356 0 0 0-.16.13.318.318 0 0 0-.053.18c0 .05.012.096.037.137.026.041.064.08.115.115.05.035.113.069.186.1.074.032.16.063.257.093.162.049.305.104.428.166.125.061.229.13.312.207a.77.77 0 0 1 .189.26.819.819 0 0 1 .063.33.715.715 0 0 1-.295.609c-.096.072-.21.126-.342.163a1.741 1.741 0 0 1-.882-.002c-.144-.04-.274-.1-.392-.179a.9.9 0 0 1-.279-.303.872.872 0 0 1-.104-.437h.617c0 .093.014.171.043.236a.394.394 0 0 0 .12.155.52.52 0 0 0 .19.087c.073.017.154.026.242.026a.655.655 0 0 0 .262-.045.324.324 0 0 0 .205-.305Z"/></g><defs><clipPath id="a"><path fill="#fff" d="M39.4 0h59.4v30H39.4z"/></clipPath></defs></svg>