<svg xmlns="http://www.w3.org/2000/svg" width="116" height="30" fill="none"><path fill="#5F646D" d="M5.106 21.385c0 3.291-5.106 3.291-5.106 0V2.747c0-3.29 5.106-3.29 5.106 0v18.638Zm8.298 6.061c0 3.29-5.106 3.29-5.106 0V8.808c0-3.291 5.106-3.291 5.106 0v18.638Zm8.298-6.061c0 3.291-5.106 3.291-5.106 0V2.747c0-3.29 5.106-3.29 5.106 0v18.638ZM30 27.446c0 3.29-5.106 3.29-5.106 0V9.408c0-3.291 5.106-3.291 5.106 0v18.038Zm70.318-5.546h-2.99V11.585h2.515l.237 1.405c.971-1.05 2.119-1.584 3.525-1.584 1.267 0 2.118.377 2.653 1.09.158.197.277.395.376.633 1.01-1.168 2.158-1.723 3.584-1.723 1.307 0 2.178.377 2.713 1.09.554.732.712 1.583.712 3.682V21.9h-2.97v-5.049c0-1.188-.079-1.702-.396-2.118-.336-.396-.792-.555-1.504-.555-.654 0-1.228.198-1.822.693.04.377.04.792.04 1.307V21.9h-2.99v-5.049c0-1.188-.06-1.702-.396-2.118-.317-.396-.772-.555-1.446-.555-.732 0-1.405.258-1.841.713v7.01Zm-8.56.159c-3.762 0-5.643-1.742-5.643-5.346 0-3.445 2.337-5.326 5.01-5.326 2.831 0 4.197 1.702 4.197 4.672 0 .555-.04 1.05-.079 1.545h-6.079c.297 1.544 1.347 2.079 3.267 2.079.792 0 1.604-.08 2.297-.178l-.138 2.356c-.713.119-1.683.198-2.832.198Zm-.713-8.455c-1.03 0-1.782.733-1.94 2.376l3.386-.178c0-1.505-.456-2.198-1.446-2.198ZM84.212 21.9h-2.99V6.852h2.99V21.9Zm-10.112.158a6.898 6.898 0 0 1-2.396-.436l-2.277.278V6.852h2.99v6.078c.732-1.01 1.722-1.544 3.069-1.544 2.296 0 3.84 1.722 3.84 4.95 0 3.683-2.098 5.722-5.226 5.722Zm-1.683-6.673v4c.455.198.89.277 1.346.277 1.445 0 2.455-.95 2.455-3.03 0-1.742-.752-2.593-1.841-2.593-.871 0-1.505.475-1.96 1.346ZM53.448 21.9h-2.99V11.585h2.515l.237 1.405c.97-1.05 2.119-1.584 3.525-1.584 1.267 0 2.118.377 2.653 1.09.158.197.277.395.376.633 1.01-1.168 2.158-1.723 3.584-1.723 1.307 0 2.178.377 2.712 1.09.555.732.713 1.583.713 3.682V21.9h-2.97v-5.049c0-1.188-.079-1.702-.396-2.118-.336-.396-.792-.555-1.505-.555-.653 0-1.227.198-1.821.693.04.377.04.792.04 1.307V21.9h-2.99v-5.049c0-1.188-.06-1.702-.396-2.118-.317-.396-.773-.555-1.446-.555-.732 0-1.406.258-1.841.713v7.01Zm-5.272-2.615V21.9h-9.049V8.04h9.049v2.614h-5.98v3.069h5.188v2.495h-5.188v3.069h5.98Z"/></svg>