<svg xmlns="http://www.w3.org/2000/svg" width="124" height="30" fill="none"><path fill="#5F646D" fill-rule="evenodd" d="M24.046 16.832v10.043l5.35-3.078V13.754l-5.35 3.079Z" clip-rule="evenodd"/><path fill="#5F646D" fill-rule="evenodd" d="m13.403 6.247-7.654 4.416-5.35-3.078L13.402.09l9.15 5.286-5.329 3.079-3.821-2.208Zm1.96 15.59 8.683-5.005 5.34-3.09-5.34-3.078-8.683 5.027v6.146Z" clip-rule="evenodd" opacity=".5"/><path fill="#5F646D" fill-rule="evenodd" d="M.398 7.586v15.01l13.005 7.495v-6.157l-7.654-4.416v-8.854L.399 7.587Z" clip-rule="evenodd"/><path fill="#5F646D" d="M111.563 21.84v-2.176l4.52-5.171h-4.315V11.74h7.831v2.586l-4.52 5.003h4.613v2.511h-8.129Zm-7.087 0v-10.1h2.827v1.339h.074c.521-1.079 1.749-1.581 3.385-1.581l-.186 3.292c-2.38-.093-3.217.856-3.217 3.2v3.85h-2.883Zm-2.256-.205c-.893.316-1.897.446-2.995.446-3.645 0-5.97-1.86-5.97-5.338 0-3.013 1.972-5.245 5.003-5.245 3.088 0 4.632 2.418 4.632 5.152 0 .41-.019.856-.093 1.19h-6.324c.372 1.284 1.525 1.86 3.273 1.86.856 0 1.563-.11 2.232-.353l.242 2.288Zm-3.924-7.459c-.93 0-1.768.54-1.972 1.898h3.85c-.056-1.06-.8-1.898-1.879-1.898Zm-9.41 2.53c0-1.377-.577-2.307-1.935-2.307-1.339 0-1.953.912-1.953 2.325v5.115h-2.883V7.703h2.827v5.208h.075c.595-.874 1.506-1.413 2.939-1.413 2.51 0 3.794 1.674 3.794 4.129v6.212h-2.864v-5.133Zm-19.14 8.668V11.74h2.827v1.209h.075c.576-.893 1.71-1.451 3.087-1.451 2.734 0 4.78 1.953 4.78 5.301s-2.213 5.282-4.798 5.282c-1.302 0-2.456-.576-3.032-1.636h-.056v4.929h-2.883Zm5.357-5.952c1.34 0 2.38-1.042 2.38-2.493 0-1.45-1.04-2.474-2.38-2.474-1.358 0-2.418.968-2.418 2.474 0 1.488 1.06 2.493 2.418 2.493ZM64.84 15.423c0-.596-.596-.968-1.842-.968-1.209 0-2.343.354-3.236.763l-.205-2.883c.874-.465 2.195-.837 3.739-.837 3.162 0 4.52 1.47 4.52 4.185v6.157h-2.94v-1.228c-.743.893-1.599 1.47-3.087 1.47-1.674 0-2.883-.875-2.883-2.567 0-2.158 1.73-2.79 3.888-3.144.818-.149 1.264-.26 1.655-.409.316-.13.39-.279.39-.54Zm.037 2.027a6.012 6.012 0 0 1-1.395.465c-.967.223-1.563.465-1.563 1.302 0 .67.558.986 1.265.986.819 0 1.414-.502 1.693-1.116V17.45ZM51.89 21.84v-10.1h2.828v1.339h.074c.521-1.079 1.749-1.581 3.385-1.581l-.186 3.292c-2.38-.093-3.217.856-3.217 3.2v3.85H51.89Zm-1.916-.262c-.949.373-2.102.484-3.33.484-.186 0-.372 0-.558-.018-4.036-.186-6.975-2.605-6.975-6.883 0-4.315 3.144-6.956 7.347-6.956 1.284 0 2.53.242 3.46.688l-.167 3.18c-.763-.353-1.823-.613-2.976-.613-2.846 0-4.576 1.544-4.576 3.887 0 2.232 1.34 3.646 3.627 3.906.41.038.855.038 1.265.02v-3.61h2.883v5.915Z"/></svg>