<svg xmlns="http://www.w3.org/2000/svg" width="114" height="30" fill="none"><path fill="#5F646D" d="M10.5 7.2A1.2 1.2 0 0 1 11.7 6h6.6a1.2 1.2 0 0 1 1.2 1.2v15.6a1.2 1.2 0 0 1-1.2 1.2h-6.6a1.2 1.2 0 0 1-1.2-1.2V7.2Z"/><path fill="#5F646D" fill-rule="evenodd" d="M3 0h24a3 3 0 0 1 3 3v24a3 3 0 0 1-3 3H3a3 3 0 0 1-3-3V3a3 3 0 0 1 3-3Zm12 28.2c7.29 0 13.2-5.91 13.2-13.2 0-7.29-5.91-13.2-13.2-13.2C7.71 1.8 1.8 7.71 1.8 15c0 7.29 5.91 13.2 13.2 13.2Z" clip-rule="evenodd"/><g fill="#5F646D" clip-path="url(#a)"><path d="M104.286 21.78V8.28h7.344v2.32h-4.464v2.9h4.284v2.322h-4.284v3.636h4.464v2.322h-7.344Zm-3.269-2.503v2.502h-7.703v-2.25l4.644-8.748h-4.644V8.28h7.703v2.25l-4.643 8.748h4.643ZM90.584 21.78H82.16v-2.323h2.772v-8.856H82.16V8.28h8.424v2.322h-2.772v8.856h2.772v2.322Zm-13.404 0-3.15-7.903.127 7.902h-2.52V8.28h2.34l3.15 7.902L77 8.28h2.52v13.5h-2.34Zm-12.394.27c-2.736 0-4.212-1.332-4.212-3.78v-6.48c0-2.448 1.476-3.78 4.212-3.78 2.736 0 4.212 1.332 4.212 3.78v6.48c0 2.448-1.476 3.78-4.212 3.78Zm0-11.52c-1.008 0-1.332.396-1.332 1.602v5.796c0 1.206.324 1.602 1.332 1.602s1.332-.396 1.332-1.602v-5.796c0-1.206-.324-1.602-1.332-1.602Zm-10.793 9c1.278 0 2.682-.306 3.636-.702l.576 2.412c-1.476.558-2.664.81-4.212.81-2.736 0-4.212-1.332-4.212-3.78v-6.48c0-2.448 1.476-3.78 4.212-3.78 1.548 0 2.736.252 4.212.81l-.576 2.412c-.954-.396-2.358-.702-3.636-.702-1.008 0-1.332.396-1.332 1.602v5.796c0 1.206.324 1.602 1.332 1.602Zm-6.581 2.25h-8.424v-2.323h2.772v-8.856h-2.772V8.28h8.424v2.322H44.64v8.856h2.772v2.322Z"/></g><defs><clipPath id="a"><path fill="#fff" d="M39 0h74.4v30H39z"/></clipPath></defs></svg>