<svg xmlns="http://www.w3.org/2000/svg" width="108" height="30" fill="none"><path fill="#5F646D" fill-rule="evenodd" d="M.311 16.957h-.11c2.354 16.746 27.408 16.581 30 0h-.112a15.86 15.86 0 0 0-3.222.333c-2.716 12.099-20.76 12.2-23.222-.11-1.111-.112-2.223-.223-3.334-.223ZM.2 12.623h.111c1.111 0 2.111-.111 3.223-.333 2.692-11.996 20.61-12.252 23.11 0 1 .222 2.112.333 3.223.333h.111C27.872-4.226 2.543-4.038.2 12.623Z" clip-rule="evenodd"/><path fill="#5F646D" fill-rule="evenodd" d="M27.534 14.734c-4.889-.667-9.333-3.222-12.333-7.222-3 4-7.445 6.555-12.334 7.222 4.89.667 9.445 3.333 12.334 7.333 3-4 7.444-6.666 12.333-7.333Z" clip-rule="evenodd"/><g fill="#5F646D" clip-path="url(#a)"><path d="M102.53 22.116c-1.056 0-1.968-.21-2.736-.63a4.282 4.282 0 0 1-1.746-1.8c-.396-.78-.594-1.71-.594-2.79 0-1.104.21-2.046.63-2.826a4.364 4.364 0 0 1 1.8-1.782c.768-.408 1.674-.612 2.718-.612.912 0 1.716.162 2.412.486.708.324 1.266.78 1.674 1.368.42.576.648 1.266.684 2.07h-2.808c-.096-.552-.312-.96-.648-1.224-.324-.276-.762-.414-1.314-.414-.456 0-.864.114-1.224.342-.348.228-.624.558-.828.99-.192.432-.288.966-.288 1.602 0 .948.216 1.68.648 2.196.444.516.984.774 1.62.774.372 0 .696-.066.972-.198.288-.132.528-.318.72-.558.192-.252.324-.534.396-.846h2.808c-.072.78-.324 1.458-.756 2.034-.432.576-1.002 1.026-1.71 1.35-.708.312-1.518.468-2.43.468ZM89.275 21.9V11.892h2.808V21.9h-2.808Zm-3.24 0v-2.268h9.324V21.9h-9.324Zm1.26-7.74v-2.268h3.384v2.268h-3.384Zm1.872-3.6V7.932h2.988v2.628h-2.988ZM80.934 21.9v-6.174c0-.516-.132-.93-.396-1.242-.264-.312-.612-.468-1.044-.468-.492 0-.948.168-1.368.504-.408.324-.84.888-1.296 1.692l-.396-2.376c.456-.78 1.008-1.332 1.656-1.656a4.257 4.257 0 0 1 1.98-.504c.768 0 1.422.162 1.962.486.552.324.972.774 1.26 1.35.3.576.45 1.254.45 2.034V21.9h-2.808Zm-6.678 0V11.892h2.718l.09 1.782V21.9h-2.808Zm-6.992.216c-1.068 0-1.986-.21-2.754-.63a4.366 4.366 0 0 1-1.782-1.8c-.408-.78-.612-1.71-.612-2.79 0-1.092.204-2.022.612-2.79a4.366 4.366 0 0 1 1.782-1.8c.768-.42 1.686-.63 2.754-.63 1.608 0 2.862.462 3.762 1.386.912.924 1.368 2.202 1.368 3.834 0 1.08-.204 2.01-.612 2.79a4.254 4.254 0 0 1-1.764 1.8c-.768.42-1.686.63-2.754.63Zm0-2.268c.72 0 1.284-.264 1.692-.792.42-.528.63-1.248.63-2.16 0-.924-.21-1.644-.63-2.16-.408-.528-.972-.792-1.692-.792-.732 0-1.308.264-1.728.792-.408.516-.612 1.236-.612 2.16 0 .912.204 1.632.612 2.16.42.528.996.792 1.728.792Zm-11.562 2.268c-1.056 0-1.968-.21-2.736-.63a4.282 4.282 0 0 1-1.746-1.8c-.396-.78-.594-1.71-.594-2.79 0-1.104.21-2.046.63-2.826a4.364 4.364 0 0 1 1.8-1.782c.768-.408 1.674-.612 2.718-.612.912 0 1.716.162 2.412.486.708.324 1.266.78 1.674 1.368.42.576.648 1.266.684 2.07h-2.808c-.096-.552-.312-.96-.648-1.224-.324-.276-.762-.414-1.314-.414-.456 0-.864.114-1.224.342-.348.228-.624.558-.828.99-.192.432-.288.966-.288 1.602 0 .948.216 1.68.648 2.196.444.516.984.774 1.62.774.372 0 .696-.066.972-.198.288-.132.528-.318.72-.558.192-.252.324-.534.396-.846h2.808c-.072.78-.324 1.458-.756 2.034-.432.576-1.002 1.026-1.71 1.35-.708.312-1.518.468-2.43.468ZM42.357 21.9V9.336h2.97V21.9h-2.97Zm-2.88-12.564h8.73v2.43h-8.73v-2.43Zm0 10.134h8.73v2.43h-8.73v-2.43Z"/></g><defs><clipPath id="a"><path fill="#fff" d="M39.2 0h68.4v30H39.2z"/></clipPath></defs></svg>