<svg xmlns="http://www.w3.org/2000/svg" width="123" height="30" fill="none"><path fill="#5F646D" d="M4.15 14.639v15.36H0V17.956l4.15-3.317Z" opacity=".4"/><path fill="#5F646D" d="M4.15 14.639v15.36H8.3V17.21l-4.15-2.57Z"/><path fill="#5F646D" d="M12.327 8.365V30H6.794V12.944l5.533-4.579Z" opacity=".5"/><path fill="#5F646D" d="M12.326 8.365V30h5.533V11.792l-5.533-3.427Z"/><path fill="#5F646D" d="M22.546 0v30h-7.453V6.851L22.546 0Z" opacity=".6"/><path fill="#5F646D" d="M22.547 0v30H30V6.851L22.547 0Zm91.343 22.643h1.863v1.574h4.32v-2.784h-4.992l-1.325-1.325V11.68h1.92v8.064h4.397V11.68h1.92v12.883l-1.364 1.325h-5.376l-1.363-1.325v-1.92Zm-4.213-.653h-1.92v-8.717h-1.67V11.68h1.67V9.165l1.344-1.325h3.188v1.593h-2.612v2.247h2.42v1.593h-2.42v8.717Zm-5.624-12.173h-1.996V8.012h1.996v1.805Zm-.038 12.172h-1.92V11.68h1.92v10.31Zm-3.863.002h-3.437l-1.344-1.344v-7.373h-1.42v-1.593h1.42V9.588h1.92v2.093h2.65v1.593h-2.65v6.912h2.861v1.805Zm-14.307-.001h-1.92V11.68h1.728v1.075l1.075-1.075h4.109l1.344 1.325v8.985h-1.94v-8.505h-3.475l-.921.825v7.68Zm-4.76-12.173h-1.997V8.012h1.997v1.805Zm-.039 12.172h-1.92V11.68h1.92v10.31Zm-7.014.001h-1.92V11.68h1.728v1.305l1.325-1.305h2.38v1.843h-2.418l-1.095 1.037v7.43ZM63.12 25.888H61.2V11.68h1.728v1.075l1.075-1.075h3.936l1.344 1.325v7.641L67.94 21.99h-4.82v3.898Zm4.243-12.404h-3.321l-.922.826v5.914h4.243v-6.74ZM46.282 21.99h-1.92V11.68h1.728v1.075l1.075-1.075h3.821l.826.845.826-.845h4.377l1.344 1.325v8.985h-1.92v-8.505h-4.07v8.505h-1.92v-8.505h-3.245l-.922.825v7.68Zm-7.032.001V8.686h1.997V21.99H39.25Z"/></svg>