<svg xmlns="http://www.w3.org/2000/svg" width="116" height="30" fill="none"><path fill="#5F646D" fill-rule="evenodd" d="M22.607 30 30.6 0 .6 7.992l6.718 6.719 16.911-8.34-8.455 16.795L22.606 30Z" clip-rule="evenodd"/><path fill="#5F646D" fill-rule="evenodd" d="m24.23 6.371-8.456 16.796H7.318V14.71L24.23 6.37Z" clip-rule="evenodd" opacity=".5"/><g fill="#5F646D" clip-path="url(#a)"><path d="M112.597 8.05h1.9v13.73h-1.9V8.05Zm-8.406 13.96c-.909 0-1.722-.225-2.438-.673a4.872 4.872 0 0 1-1.671-1.785 5.152 5.152 0 0 1-.614-2.496c0-.896.217-1.715.653-2.458a4.927 4.927 0 0 1 1.804-1.785c.756-.448 1.607-.672 2.554-.672.947 0 1.798.217 2.554.652a4.68 4.68 0 0 1 1.785 1.748c.448.742.672 1.58.672 2.515v4.723h-1.805v-3.514l.653-.499c0 .794-.179 1.51-.537 2.15a4.003 4.003 0 0 1-1.46 1.537c-.614.37-1.331.556-2.15.556Zm.288-1.805a3.06 3.06 0 0 0 2.707-1.556 3.2 3.2 0 0 0 .403-1.574c0-.576-.134-1.1-.403-1.574a3.054 3.054 0 0 0-1.113-1.133 2.959 2.959 0 0 0-1.594-.442c-.589 0-1.12.147-1.594.442-.46.281-.832.659-1.113 1.133a3.131 3.131 0 0 0-.403 1.574 3.2 3.2 0 0 0 .403 1.574c.281.474.653.852 1.113 1.133a3.06 3.06 0 0 0 1.594.423Zm-11.511-8.101c.947 0 1.74.21 2.38.633a3.997 3.997 0 0 1 1.479 1.709c.345.717.518 1.51.518 2.38v4.954h-1.9v-4.646c0-.576-.097-1.107-.289-1.594a2.496 2.496 0 0 0-.864-1.17c-.384-.295-.87-.442-1.459-.442-.563 0-1.037.147-1.42.441a2.55 2.55 0 0 0-.865 1.152 4.154 4.154 0 0 0-.288 1.575v4.684h-1.9v-4.684c0-.576-.097-1.101-.288-1.575a2.383 2.383 0 0 0-.865-1.152c-.383-.294-.87-.441-1.459-.441-.589 0-1.075.147-1.459.441a2.607 2.607 0 0 0-.826 1.171 4.576 4.576 0 0 0-.268 1.594v4.646h-1.901v-4.934c0-.883.16-1.683.48-2.4a4.042 4.042 0 0 1 1.46-1.709c.652-.422 1.446-.633 2.38-.633.793 0 1.478.153 2.054.46.59.307 1.043.73 1.363 1.268.333.537.506 1.158.519 1.862h-.422c.025-.704.198-1.325.518-1.863.333-.537.78-.96 1.344-1.267.576-.307 1.235-.46 1.978-.46Zm-16.672.268h1.901v9.408h-1.9v-9.408Zm.941-1.863a1.28 1.28 0 0 1-.614-.153 1.324 1.324 0 0 1-.46-.461 1.208 1.208 0 0 1-.174-.634c0-.23.058-.441.173-.633.115-.192.269-.346.46-.461a1.183 1.183 0 0 1 1.23 0c.192.115.339.269.441.46.115.193.173.404.173.634 0 .23-.057.442-.173.634-.102.192-.25.346-.441.46-.18.103-.384.154-.615.154ZM71.55 22.03c-.767 0-1.42-.154-1.958-.461a3.082 3.082 0 0 1-1.229-1.267c-.269-.55-.403-1.184-.403-1.901V9.934h1.9v8.41c0 .614.167 1.094.5 1.44.346.345.8.518 1.363.518a2.9 2.9 0 0 0 .922-.154 2.93 2.93 0 0 0 .826-.403v1.747a3.527 3.527 0 0 1-.884.384 3.634 3.634 0 0 1-1.037.154Zm1.92-8.007h-7.372v-1.651h7.373v1.651ZM57.02 26.099h-1.9v-9.043c0-.935.217-1.773.652-2.515a4.825 4.825 0 0 1 1.805-1.748c.755-.435 1.606-.652 2.553-.652.947 0 1.799.224 2.554.672a4.782 4.782 0 0 1 1.785 1.785 4.77 4.77 0 0 1 .653 2.458c0 .947-.21 1.798-.633 2.553a4.722 4.722 0 0 1-1.748 1.767c-.73.422-1.574.633-2.534.633a4.217 4.217 0 0 1-2.093-.537 4.437 4.437 0 0 1-1.517-1.402 3.532 3.532 0 0 1-.556-1.92l.979.5v7.449Zm3.11-5.875c.59 0 1.114-.141 1.575-.423a3.2 3.2 0 0 0 1.113-1.152 3.203 3.203 0 0 0 .404-1.574c0-.576-.135-1.1-.404-1.574a3.05 3.05 0 0 0-1.113-1.133 2.958 2.958 0 0 0-1.575-.423 3.05 3.05 0 0 0-1.593.423 3.25 3.25 0 0 0-1.114 1.133 3.134 3.134 0 0 0-.403 1.574c0 .563.134 1.088.403 1.574a3.42 3.42 0 0 0 1.114 1.152 3.058 3.058 0 0 0 1.593.423ZM46.392 22.01a6.777 6.777 0 0 1-2.612-.498 6.671 6.671 0 0 1-3.514-3.533 6.972 6.972 0 0 1-.498-2.65c0-.934.166-1.798.499-2.592a6.678 6.678 0 0 1 1.42-2.112 6.467 6.467 0 0 1 2.093-1.402 6.558 6.558 0 0 1 2.612-.518c.934 0 1.798.173 2.592.518.793.333 1.49.8 2.092 1.402a6.414 6.414 0 0 1 1.402 2.112c.333.794.5 1.658.5 2.592 0 .947-.167 1.83-.5 2.65a6.42 6.42 0 0 1-1.402 2.112 6.732 6.732 0 0 1-2.092 1.42c-.794.333-1.658.5-2.592.5Zm0-1.862c.627 0 1.216-.121 1.766-.364a4.819 4.819 0 0 0 1.478-1.037c.423-.436.75-.941.98-1.517a5.17 5.17 0 0 0 .345-1.9c0-.666-.115-1.287-.345-1.863a4.616 4.616 0 0 0-.98-1.517 4.616 4.616 0 0 0-1.459-1.018 4.368 4.368 0 0 0-1.785-.364c-.64 0-1.242.121-1.805.364a4.556 4.556 0 0 0-1.479 1.018 5.04 5.04 0 0 0-.979 1.517 4.968 4.968 0 0 0-.345 1.862c0 .678.115 1.312.345 1.9a5.06 5.06 0 0 0 .98 1.518c.422.435.915.78 1.478 1.037a4.503 4.503 0 0 0 1.805.364Z"/></g><defs><clipPath id="a"><path fill="#fff" d="M39.6 0h76.2v30H39.6z"/></clipPath></defs></svg>