<svg xmlns="http://www.w3.org/2000/svg" width="122" height="30" fill="none"><path fill="#5F646D" d="M8.365 19.585c-3.246 0-8.314.466-8.314-4.215 0-2.38 1.732-4.446 4.215-4.446 8.099 0 14.66 6.562 14.66 14.661v.066a4.211 4.211 0 0 1-4.214 4.215c-4.61 0-4.215-4.915-4.215-8.132 0-1.19-.959-2.149-2.132-2.149Z"/><path fill="#5F646D" d="M19.786 8.165c0-3.246.466-8.314-4.215-8.314-.403 0-4.446-.435-4.446 4.215 0 8.099 6.562 14.66 14.661 14.66 2.324 0 4.281-1.863 4.281-4.214 0-4.61-4.915-4.215-8.132-4.215a2.14 2.14 0 0 1-2.149-2.132Z"/><g fill="#5F646D" clip-path="url(#a)"><path d="M121.508 19.146V21.6h-8.984V8.246h8.854v2.455h-6.026v2.809h5.468v2.437h-5.468v3.199h6.156ZM103.754 21.6h-4.743V8.247h4.743c4.241 0 6.807 2.716 6.807 6.603 0 3.887-2.659 6.752-6.807 6.752Zm-1.916-10.917v8.481h1.767c2.66 0 4.055-1.544 4.055-4.315 0-2.66-1.395-4.166-4.055-4.166h-1.767Zm-5.531-2.437v8.277c0 3.162-2.009 5.357-5.487 5.357-3.534 0-5.505-2.195-5.505-5.357V8.246h2.827v8.333c0 1.655.8 2.771 2.678 2.771 1.86 0 2.66-1.116 2.66-2.771V8.246h2.827ZM83.864 21.6h-8.63V8.247h2.827v10.807h5.803V21.6Zm-10.818-2.454V21.6h-8.984V8.246h8.854v2.455H66.89v2.809h5.468v2.437H66.89v3.199h6.156ZM54.157 21.6H51.33V8.247h5.227c3.366 0 5.32 1.563 5.32 4.334 0 1.804-1.117 3.236-3.014 3.869l3.441 5.152h-3.367l-3.013-4.724h-1.767V21.6Zm0-11.01v3.962h2.27c1.71 0 2.622-.67 2.622-1.972 0-1.32-.911-1.99-2.623-1.99h-2.269Zm-10.032 6.658h-2.102v4.353h-2.827V8.246h4.93c3.254 0 5.282 1.544 5.282 4.445 0 2.902-2.028 4.557-5.283 4.557Zm-.018-6.621h-2.084v4.24h2.084c1.6 0 2.492-.836 2.492-2.157 0-1.32-.893-2.083-2.492-2.083Z"/></g><defs><clipPath id="a"><path fill="#fff" d="M39.2 0H122v30H39.2z"/></clipPath></defs></svg>