<svg xmlns="http://www.w3.org/2000/svg" width="118" height="30" fill="none"><path fill="#5F646D" fill-rule="evenodd" d="M16.094 29.134c6.235 0 11.765-4.117 13.53-10.117-4.908.818-10.2-1.215-13.53-4.824-3.331 3.609-8.622 5.642-13.53 4.824 1.883 6.117 7.295 10.117 13.53 10.117Z" clip-rule="evenodd"/><path fill="#5F646D" fill-rule="evenodd" d="M30.212 16.076c0-6.595-3.508-12.644-10.118-14.588.607 3.643-.44 7.615-2.353 10.706 3.163 3.314 7.978 5.006 12.47 3.882Zm-15.882-4c-1.961-3.016-2.952-6.994-2.353-10.588-6.557 1.967-10 8.049-10 14.588 4.472 1.119 9.337-.532 12.352-4Z" clip-rule="evenodd" opacity=".5"/><path fill="#5F646D" fill-rule="evenodd" d="M16.093 9.606c.942-1.764 1.412-3.764 1.412-5.882 0-.941-.117-1.882-.353-2.824h-2.117a11.603 11.603 0 0 0-.353 2.824c0 2.118.588 4.118 1.411 5.882Z" clip-rule="evenodd"/><g fill="#5F646D" clip-path="url(#a)"><path d="M114.667 22.137a1.952 1.952 0 0 1-1.96-1.96c0-1.089.871-1.98 1.96-1.98s1.98.891 1.98 1.98c0 1.09-.891 1.96-1.98 1.96Zm-15.077-7.92c-.734 0-1.427.198-1.961.416v7.207H94.46V11.346h2.97v1.248c.812-.753 2.06-1.446 3.604-1.446 1.524 0 2.435.634 2.91 1.664.772-.832 2.139-1.664 3.822-1.664 2.455 0 3.326 1.664 3.326 3.96v6.732h-3.168v-5.88c0-1.03-.396-1.743-1.604-1.743-.732 0-1.445.198-1.98.416.02.159.02.317.02.475v6.732h-3.168v-5.88c0-1.03-.396-1.743-1.604-1.743Zm-12.439 4.752c.812 0 1.584-.178 2.159-.416v-7.207h3.168V21.84h-2.97v-1.248a5.744 5.744 0 0 1-3.802 1.446c-2.594 0-3.524-1.663-3.524-3.96v-6.732h3.168v5.88c0 1.01.455 1.743 1.801 1.743Zm-11.804-4.752c-.812 0-1.584.179-2.158.416v7.207H70.02V11.346h2.97v1.248a5.744 5.744 0 0 1 3.801-1.446c2.594 0 3.525 1.664 3.525 3.96v6.732h-3.168v-5.88c0-1.01-.456-1.743-1.802-1.743Zm-7.262 5.346c0 4.139-2.554 5.604-5.504 5.604-1.663 0-3.089-.475-3.96-1.01v-3.188c.97.733 2.257 1.228 3.603 1.228 2.1 0 2.693-.911 2.693-2.139v-.118c-.673.435-1.544.772-2.693.772-2.475 0-4.375-1.663-4.375-4.317 0-3.663 2.95-5.247 5.801-5.247 1.98 0 3.386.515 4.435.931v7.484Zm-6.95-3.603c0 1.445.97 1.9 2.02 1.9.614 0 1.247-.158 1.762-.356v-3.346a5.05 5.05 0 0 0-1.287-.178c-1.346 0-2.495.594-2.495 1.98Zm-6.563-5.585c-1.306 0-2.098-.594-2.098-1.604 0-1.01.792-1.584 2.098-1.584 1.327 0 2.08.575 2.08 1.584 0 1.01-.753 1.604-2.08 1.604Zm-1.603.97h3.168V21.84h-3.168V11.345Zm-5.046 6.753c0-.673-.792-.89-1.96-1.188l-1.683-.416c-2.297-.574-4.356-1.405-4.356-4.177 0-2.792 2.435-4.337 5.366-4.337 2.593 0 4.237.733 5.128 1.248v3.584c-1.327-.832-3.505-1.604-5.247-1.604-1.03 0-1.644.257-1.644.851 0 .693.812.911 2.159 1.268l1.465.396c2.059.554 4.237 1.306 4.237 4.158 0 2.692-2.356 4.157-5.504 4.157-2.475 0-4.475-.791-5.386-1.445v-3.465c1.346.99 3.802 1.802 5.603 1.802 1.386 0 1.822-.297 1.822-.832Z"/></g><defs><clipPath id="a"><path fill="#fff" d="M39.8 0h77.4v30H39.8z"/></clipPath></defs></svg>