<svg xmlns="http://www.w3.org/2000/svg" width="96" height="30" fill="none"><path fill="#5F646D" d="M20.006 8.594c5.264.036 9.598 4.44 9.525 9.678-.069 5.219-4.386 9.489-9.601 9.5-5.235.013-9.606-4.394-9.57-9.641.037-5.3 4.359-9.57 9.646-9.537Zm7.23 9.597c.009-4.071-3.287-7.375-7.339-7.36-3.974.017-7.246 3.3-7.286 7.316-.045 3.963 3.275 7.32 7.242 7.331 4.116.016 7.376-3.199 7.384-7.287Z"/><path fill="#5F646D" d="M13.883 29.316c-5.453-1.175-9.658-6.71-9.828-12.546-.177-6.047 3.943-11.633 9.796-13.29 5.36-1.514 11.896.675 14.19 4.836-6.114-5.69-15.779-4.88-20.294 2.37-3.373 5.417-2.52 14.316 6.136 18.63Z"/><path fill="#5F646D" d="M11.66 30C5.443 28.66.65 22.352.457 15.698.254 8.804 4.95 2.436 11.623.548c6.11-1.727 13.561.769 16.177 5.512C20.83-.427 9.812.498 4.665 8.763.82 14.938 1.792 25.083 11.66 30Z"/><path fill="#5F646D" d="M27.82 10.436c-6.093-5.404-13.473-3.134-16.62 1.248-2.044 2.852-2.637 5.99-1.753 9.355.873 3.309 3.038 5.611 6.37 7.267-4.524-.792-8.167-5.275-8.591-10.183-.433-5.045 2.847-10.01 7.743-11.714 4.714-1.644 10.24.065 12.85 4.027Z"/><path fill="#5F646D" d="M19.946 21.838a3.656 3.656 0 1 0 0-7.31 3.656 3.656 0 0 0 0 7.31Z"/><g fill="#5F646D" clip-path="url(#a)"><path d="M93.787 21.841c-2.264 0-3.447-.836-3.447-3.12v-5.182h-1.694v-1.836h1.734l.47-2.51h1.693v2.51h3.06v1.836h-3.06v5.08c0 1.06.449 1.244 1.816 1.244h1.244v1.795c-.428.102-1.122.183-1.816.183Zm-10.533.204c-3.345 0-4.916-2.122-4.916-5.284 0-3.141 1.877-5.263 4.896-5.263 2.734 0 4.651 1.632 4.651 4.406 0 .53-.061 1.082-.122 1.388h-7.365c.082 1.856.755 2.794 2.877 2.794 1.693 0 2.346-.57 2.346-1.489v-.163h2.183v.184c0 2.08-1.816 3.427-4.55 3.427Zm-.06-8.69c-1.919 0-2.653.897-2.775 2.468h5.365c.081-1.734-.857-2.469-2.59-2.469ZM69.435 21.84H67.23V11.703h2.02V13.6h.082c.469-1.081 1.55-2.101 3.529-2.101 2.631 0 3.815 1.673 3.815 3.978v6.365h-2.204v-5.875c0-1.816-.57-2.57-2.427-2.57-1.795 0-2.611.693-2.611 2.59v5.855Zm-9.941-.958c-2.795 0-4.346-1.836-4.346-4.692s1.571-4.692 4.427-4.692c1.632 0 2.897.694 3.387 1.877h.081v-1.673h2.02v9.404c0 3-1.755 4.407-4.713 4.407-2.876 0-4.671-1.367-4.671-3.815h2.183c0 1.387.51 1.856 2.55 1.856 1.978 0 2.468-.57 2.468-2.448v-2.02h-.082c-.469.98-1.652 1.796-3.304 1.796Zm-2.142-4.692c0 2.08.856 2.815 2.774 2.815 1.652 0 2.754-.795 2.754-2.509v-.632c0-1.694-1.102-2.49-2.795-2.49-1.897 0-2.733.735-2.733 2.816Zm-3.739-5.774h-2.182l-.02-2.244h2.202v2.244Zm.02 11.424h-2.202v-10.2h2.203v10.2Zm-8.803.205c-3.937 0-5.65-1.816-5.65-4.447v-.347h2.162v.224c0 1.693.714 2.55 3.57 2.55 2.02 0 2.754-.55 2.754-1.815 0-1.245-.408-1.694-2.51-2.122l-2.325-.47c-2.346-.448-3.61-1.59-3.61-3.753 0-2.02 1.57-3.896 5.1-3.896 3.773 0 5.283 2.121 5.283 4.549v.245h-2.162v-.225c0-1.672-.735-2.55-3.183-2.55-2.02 0-2.835.572-2.835 1.775 0 1.245.55 1.591 2.427 2l2.326.489c2.57.53 3.692 1.815 3.692 3.876 0 2.142-1.55 3.917-5.038 3.917Z"/></g><defs><clipPath id="a"><path fill="#fff" d="M39 0h57v30H39z"/></clipPath></defs></svg>