<svg xmlns="http://www.w3.org/2000/svg" width="104" height="30" fill="none"><path fill="#5F646D" d="M15.2 25.158a7.8 7.8 0 1 1-6.6-11.959c2.856 0 5.251 1.574 6.6 3.784-1.539 2.536-1.651 5.745 0 8.175Z" opacity=".5"/><path fill="#5F646D" d="M22.991 13.2a7.8 7.8 0 1 1-6.644 11.934c-1.514-2.423-1.449-5.288-.289-7.603 2.966-.038 5.747-1.644 6.933-4.332Z" opacity=".8"/><path fill="#5F646D" d="M8.833 11.904a7.8 7.8 0 1 1 13.652.437c-1.46 2.456-4.035 3.71-6.625 3.74-1.393-2.618-4.094-4.354-7.027-4.177Z"/><g fill="#5F646D" clip-path="url(#a)"><path d="M102.689 19.9v2h-4.04l-.237-.793c-.95.634-1.94 1.03-3.069 1.03-1.822 0-3.109-1.09-3.109-2.832 0-2 1.624-3.01 4.812-3.128l.99-.04c-.02-.237-.02-.455-.06-.653-.138-1.09-.613-1.624-1.801-1.624-.06 0-.12.02-.198.02a9.99 9.99 0 0 0-.931.119l-.119 1.247h-1.802l-.158-3.148c1.584-.495 2.752-.752 4.138-.752 2.851 0 3.921 1.108 4.039 3.801 0 .198.02.396.02.634v3.96l1.525.158Zm-6.138.217c.495 0 1.05-.158 1.485-.356V17.86h-1.109c-1.228.04-1.703.475-1.703 1.188 0 .693.475 1.07 1.327 1.07Zm-6.592-.217v2h-6.871v-2l1.525-.159v-5.563h-1.525v-2l4.574-.832v1.703a4.604 4.604 0 0 1 3.603-1.703l-.099 2.91c-1.366 0-2.475.16-3.366.476v4.99l2.159.178Zm-8.111 1.742c-.634.198-1.545.495-2.614.495-2.04 0-3.465-.99-3.465-4.079v-4.217h-1.406v-2l1.485-.06.357-2.652 2.772-.555v3.089l2.712-.099v2.277h-2.712v4.04c0 1.088.277 1.682 1.485 1.682.316 0 .732-.04 1.148-.099l.238 2.178Zm-8.764-.02a11.24 11.24 0 0 1-3.227.515c-3.465 0-5.346-2.139-5.346-5.307 0-3.247 1.94-5.484 5.346-5.484.99 0 2.059.158 3.088.574l-.118 3.604h-1.94l-.12-1.802a2.569 2.569 0 0 0-.514-.06c-1.683 0-2.376 1.188-2.376 3.05 0 1.86.792 3.088 2.712 3.088.634 0 1.386-.138 2.159-.336l.336 2.158Zm-10.504-.317c-.891.436-2.416.832-3.841.832-3.247 0-5.366-2.119-5.366-5.386 0-3.425 2.237-5.405 5.188-5.405 3.623 0 4.791 2.89 4.197 5.84-1.148.357-4.296.397-6.177.317.277 1.723 1.405 2.238 2.732 2.238.93 0 2.06-.218 2.871-.475l.396 2.04Zm-4.079-7.781c-.812 0-1.722.515-1.96 2.158l3.386-.04c.158-1.069-.238-2.118-1.426-2.118ZM48.07 10.079v-2.04h5.98v2.04l-1.327.138L48.426 21.9H45.06l-4.376-11.682-1.286-.139V8.04h6.157v2.04l-1.485.158 2.772 8.435 2.752-8.415-1.524-.178Z"/></g><defs><clipPath id="a"><path fill="#fff" d="M39.8 0h63.6v30H39.8z"/></clipPath></defs></svg>