<svg xmlns="http://www.w3.org/2000/svg" width="110" height="30" fill="none"><path fill="#5F646D" fill-rule="evenodd" d="M12.276 0C9.48 0 6.937 1.017 4.903 2.542L18.76 19.195l11.314-8.517C29.564 4.703 24.48 0 18.25 0" clip-rule="evenodd" opacity=".5"/><path fill="#5F646D" fill-rule="evenodd" d="M18.25 30c7.016 0 11.95-5.842 11.95-12.584l-10.297 7.627c-1.144.89-2.797.636-3.686-.381L1.47 6.865C-.251 10.308.2 14.195.2 17.925c0 6.61 5.339 11.949 11.949 11.949" clip-rule="evenodd"/><g fill="#5F646D" clip-path="url(#a)"><path d="M107.33 21.677c-1.19 2.902-3.962 4.873-6.938 4.873-1.73 0-3.627-.558-3.831-2.232.557-1.097 1.897-2.325 2.994-2.808-.893-.28-1.34-1.023-1.34-1.953 0-.67.484-1.749.987-2.846.483-1.116.967-2.25.967-3.013 0-.28-.112-.354-.28-.354-.185 0-.594.112-.762.224l-.055-.038.074-.428c.576-.39 1.637-.8 2.66-.8 1.413 0 2.046.707 2.046 1.917 0 .67-.428 1.804-.837 2.883-.428 1.06-.837 2.046-.837 2.473 0 .335.186.447.39.447.298 0 .744-.484 1.302-1.414.744-1.283 1.674-3.367 2.604-6.12 1.135.187 2.828.82 3.479 1.656-.224.558-1.842 5.655-2.623 7.533ZM99.778 22.7c0 1.544.856 3.162 2.288 3.162.502 0 1.06-1.488 1.637-3.31.558-1.805 1.135-3.925 1.693-5.264l-.372.074c-.261.52-.54 1.023-.837 1.507-.949 1.525-2.139 2.77-3.739 2.77-.186 0-.353-.018-.52-.036a4.337 4.337 0 0 0-.15 1.097Z"/><path d="M94.15 22.199c-1.45 0-2.343-.8-2.343-2.083 0-.726.167-1.488.558-2.679l1.618-4.929c.428-1.302.614-2.064.707-2.79l-.67-1.209.056-.279a43.8 43.8 0 0 1 4.464-.279l.242.168c0 .688-.354 2.938-1.34 6.045-.539 1.692-1.971 5.412-1.971 6.77 0 .167.037.372.056.446.985-.409 2.548-1.432 3.18-2.139l.056.056v.428c-1.172 1.32-3.348 2.474-4.613 2.474Z"/><path d="M92.66 19.613c-.892 1.004-3.273 2.585-4.835 2.585-1.321 0-2.047-.688-2.047-1.897 0-.688.26-1.32 1.21-2.995l-.633.056c-.744 1.786-2.046 4.836-4.11 4.836-1.489 0-2.549-1.488-2.549-3.571 0-3.739 2.046-6.324 5.004-6.324.986 0 1.748.409 2.232 1.246l-.186.465c-.41-.54-.874-1.116-1.47-1.116-.837 0-1.562 2.567-1.562 5.468 0 1.172.186 1.823.54 1.823.297 0 .632-.614 1.32-2.25a78.128 78.128 0 0 0 2.083-5.432c1.358.186 2.846.93 3.478 1.637 0 .651-.502 2.12-1.004 3.553-.484 1.432-.986 2.846-.986 3.404a.57.57 0 0 0 .056.279c1.544-.633 2.753-1.6 3.404-2.288l.055.056v.465Z"/><path d="M80.314 19.799c-.893 1.004-3.088 2.399-4.65 2.399-1.32 0-2.046-.688-2.046-1.897 0-1.005.54-2.679 1.32-4.223l-.297-.092c-.056.111-.354.78-.428.93-1.19 2.585-2.437 5.282-5.022 5.282-1.47 0-2.232-.874-2.232-2.083 0-.651.465-1.86.911-3.106.465-1.247.93-2.511.93-3.293 0-.279-.111-.353-.279-.353-.297 0-.744.167-1.116.39l-.055-.037.074-.483c.837-.447 1.99-.93 3.013-.93 1.414 0 2.046.725 2.046 1.934 0 .67-.39 1.935-.781 3.125-.39 1.209-.781 2.344-.781 2.771 0 .335.186.447.39.447.41 0 1.005-.781 1.693-2.12.763-1.47 1.674-3.61 2.66-6.157 1.32.093 2.827.744 3.366 1.264 0 1.303-2.046 5.655-2.046 7.534a.57.57 0 0 0 .056.279c1.544-.633 2.567-1.414 3.218-2.102l.056.056v.465Zm-15.059-.559c0 2.12-2.176 2.958-3.98 2.958-1.971 0-4.017-.614-4.706-1.563.354-.855.949-1.618 1.563-2.25h.186c.428 1.097 1.488 3.366 2.697 3.366.558 0 1.06-.334 1.06-1.023 0-.967-.688-1.283-1.581-1.84-1.47-.912-2.418-1.563-2.418-2.903 0-2.696 3.236-3.682 5.375-3.682 1.99 0 3.311.725 3.311 1.897 0 .725-.428 1.172-1.041 1.488-.93.111-1.842.13-2.772.13l-.056-.186c.447-.502.893-.986.893-1.47 0-.539-.558-1.264-1.302-1.264-.577 0-1.153.39-1.153 1.358 0 .967.614 1.525 1.506 2.083 1.47.911 2.418 1.562 2.418 2.902Z"/><path d="M54.622 10.517c-.725 0-1.264-.465-1.264-1.116 0-.985.967-1.58 1.767-1.58.725 0 1.246.464 1.246 1.097 0 1.004-.949 1.6-1.749 1.6Zm2.902 9.282c-.893 1.004-2.716 2.4-4.278 2.4-1.32 0-2.344-.69-2.344-2.084 0-.67.26-1.563.596-2.623.334-1.041.688-2.213.93-3.57l-.707-1.061.056-.28a44.81 44.81 0 0 1 4.463-.278l.26.186c0 .744-.222 2.325-.669 3.906-.483 1.711-1.283 3.59-1.283 4.538 0 .168.018.372.074.447.856-.372 2.158-1.302 2.846-2.065l.056.056v.428ZM44.863 8.955l.26.223c.112 1.265.15 2.586.15 3.85 0 2.567-.336 5.19-.577 6.92l.465.018c1.822-1.823 3.515-4.743 3.515-6.882 0-1.71-.707-2.845-1.395-3.57l.037-.243c1.135-.223 2.381-.297 3.293-.316.39.298.632.707.632 1.47 0 .52-.13 1.153-.39 1.99-.763 2.474-5.302 8.407-7.497 9.783a6.304 6.304 0 0 1-2.548-.762c.205-2.363.354-4.818.354-7.105 0-1.321-.075-2.53-.168-3.534L39.32 9.476l.038-.242c1.302-.13 4.203-.279 5.505-.279Z"/></g><defs><clipPath id="a"><path fill="#fff" d="M39.2 0H110v30H39.2z"/></clipPath></defs></svg>