<svg xmlns="http://www.w3.org/2000/svg" width="136" height="30" fill="none"><path fill="#5F646D" d="M30.32 7.238a2.754 2.754 0 1 0-5.338-1.36 2.754 2.754 0 0 0 5.338 1.36Zm-9.251-2.469c2.545-3.177-1.918-6.37-4.25-3.46-.131.132-15.256 18.772-15.358 18.927-2.688 3.353 1.588 6.78 4.25 3.46.13-.132 15.255-18.772 15.358-18.927ZM24.4 14.917c2.443-3.048-1.832-6.475-4.248-3.46-.132.131-10.407 12.84-10.51 12.996-2.459 3.184 1.816 6.611 4.249 3.46.132-.132 10.406-12.84 10.51-12.996ZM5.534 9.128a2.754 2.754 0 1 0-1.96-5.149 2.754 2.754 0 0 0 1.96 5.15Z"/><g fill="#5F646D" clip-path="url(#a)"><path d="M119.444 22.11h-8.716V8.073h8.716v2.266h-6.259v3.61h5.607v2.169h-5.607v3.725h6.259v2.265Zm-20.847 0h-2.42V8.073h2.44l6.585 9.946V8.074h2.419V22.11h-2.419l-6.605-9.945v9.945Zm-5.53-14.036V22.11h-2.458V8.074h2.458Zm-10.331 0v11.77h5.875v2.265h-8.333V8.074h2.458Zm-10.199 8.294L67.87 8.36h1.555l3.399 5.933c.153.288.269.518.403.826.173-.346.173-.346.422-.826l3.36-5.933h1.517l-4.608 8.007v5.74h-1.382v-5.74Zm-14.25 5.74h-1.401l5.05-13.747h1.708l5.107 13.747h-1.44l-1.344-3.648h-6.336l-1.344 3.648Zm4.32-11.808-2.553 6.95h5.472l-2.573-6.95c-.058-.192-.154-.422-.173-.556a3.54 3.54 0 0 1-.173.556ZM43.538 22.108l-4.09-13.747h1.44l2.784 9.447c.192.672.365 1.363.538 2.265.23-.998.422-1.593.633-2.265L47.84 8.36h1.44l2.995 9.447c.211.69.403 1.382.614 2.265a24.68 24.68 0 0 1 .538-2.246l2.841-9.466h1.402l-4.128 13.747h-1.306L48.55 10.435l-3.686 11.673h-1.325Z"/></g><defs><clipPath id="a"><path fill="#fff" d="M39.4 0H136v30H39.4z"/></clipPath></defs></svg>