<svg xmlns="http://www.w3.org/2000/svg" width="406" height="415" fill="none"><g clip-path="url(#a)"><g opacity=".6" style="mix-blend-mode:plus-lighter"><g filter="url(#b)" opacity=".5"><g filter="url(#c)" opacity=".8"><path fill="url(#d)" d="m517.039-87.2 5.074 8.413-201.005 191.224-138.352 127.724 133.277-136.136L517.039-87.199Z"/></g><g filter="url(#e)" opacity=".8"><path fill="url(#f)" d="m504.284-124.66 5.075 8.412L308.353 74.976 170.001 202.7 303.278 66.564 504.284-124.66Z"/></g><g filter="url(#g)" opacity=".8" style="mix-blend-mode:soft-light"><path fill="url(#h)" d="m564.298-101.926 5.074 8.412L368.366 97.71 230.015 225.434 363.292 89.299l201.006-191.225Z"/></g><g filter="url(#i)" opacity=".2" style="mix-blend-mode:plus-lighter"><path fill="url(#j)" d="m494.047-87.482 5.074 8.411-201.006 191.225-138.351 127.724 133.277-136.136L494.047-87.482Z"/></g><g filter="url(#k)" opacity=".8"><path fill="url(#l)" d="m508.657-81.139 4.403 9.18-244.722 240.172L100.42 329.037l163.515-170.004L508.657-81.139Z"/></g><g filter="url(#m)" opacity=".8"><path fill="url(#n)" d="m499.777-123 4.403 9.18-244.722 240.171L91.54 287.175l163.516-170.004L499.777-123Z"/></g><g filter="url(#o)" opacity=".8" style="mix-blend-mode:soft-light"><path fill="url(#p)" d="m562.141-102.797 4.402 9.18-244.721 240.171-167.919 160.825 163.516-170.005 244.722-240.171Z"/></g><g filter="url(#q)" opacity=".2" style="mix-blend-mode:plus-lighter"><path fill="url(#r)" d="m483.636-79.176 4.403 9.18-244.722 240.171L75.398 331l163.516-170.004L483.636-79.176Z"/></g><g filter="url(#s)" opacity=".8"><path fill="url(#t)" d="m520.549-76.313 4.408 9.122-241.035 231.614-165.41 155.015 161.001-164.137L520.549-76.312Z"/></g><g filter="url(#u)" opacity=".8"><path fill="url(#v)" d="m511.533-117.686 4.409 9.122-241.036 231.613-165.41 155.016 161.002-164.137 241.035-231.614Z"/></g><g filter="url(#w)" opacity=".8" style="mix-blend-mode:soft-light"><path fill="url(#x)" d="m573.392-96.588 4.408 9.121-241.035 231.614-165.411 155.015 161.002-164.136L573.392-96.588Z"/></g><g filter="url(#y)" opacity=".2" style="mix-blend-mode:plus-lighter"><path fill="url(#z)" d="m495.783-74.87 4.409 9.122-241.036 231.614-165.41 155.015 161.002-164.136L495.783-74.869Z"/></g><g filter="url(#A)" opacity=".8"><path fill="url(#B)" d="m469.402-114.791 11.68 10.655-215.157 278.224-149.929 186.3 138.25-196.955 215.156-278.224Z"/></g><g filter="url(#C)" opacity=".8"><path fill="url(#D)" d="m423.891-155.83 11.68 10.655-215.157 278.224-149.93 186.3 138.25-196.955L423.891-155.83Z"/></g><g filter="url(#E)" opacity=".8" style="mix-blend-mode:soft-light"><path fill="url(#F)" d="m534.251-139.84 11.68 10.655L330.774 149.04l-149.93 186.299 138.25-196.954L534.251-139.84Z"/></g><g filter="url(#G)" opacity=".2" style="mix-blend-mode:plus-lighter"><path fill="url(#H)" d="m483.62-120.707 11.68 10.655-215.157 278.224-149.93 186.3 138.25-196.955L483.62-120.707Z"/></g><g filter="url(#I)" opacity=".2" style="mix-blend-mode:plus-lighter"><path fill="url(#J)" d="m378.3-27.893 11.68 10.655-215.157 278.225-149.93 186.299 138.25-196.954L378.3-27.893Z"/></g></g><g opacity=".5"><g filter="url(#K)" opacity=".8"><path fill="url(#L)" d="m489.52-122.961 9.514 7.903-143.3 169.685-100.368 113.208 90.853-121.111L489.52-122.961Z"/></g><g filter="url(#M)" opacity=".8"><path fill="url(#N)" d="m458.336-157.848 9.514 7.904L324.55 19.74 224.182 132.948l90.854-121.111 143.3-169.685Z"/></g><g filter="url(#O)" opacity=".8" style="mix-blend-mode:soft-light"><path fill="url(#P)" d="m536.678-135.027 9.514 7.903-143.3 169.684-100.368 113.208 90.854-121.11 143.3-169.685Z"/></g><g filter="url(#Q)" opacity=".2" style="mix-blend-mode:plus-lighter"><path fill="url(#R)" d="m463.259-123.947 9.514 7.903-143.3 169.685-100.368 113.207 90.854-121.11 143.3-169.685Z"/></g></g><g opacity=".5"><g filter="url(#S)" opacity=".8"><path fill="url(#T)" d="m495.126-123.814 8.545 7.369L372.99 43.854 281.5 150.827l82.946-114.343 130.68-160.298Z"/></g><g filter="url(#U)" opacity=".8"><path fill="url(#V)" d="m467.188-156.406 8.545 7.369-130.68 160.299-91.49 106.974L336.508 3.892l130.68-160.298Z"/></g><g filter="url(#W)" opacity=".8" style="mix-blend-mode:soft-light"><path fill="url(#X)" d="m537.826-135.438 8.545 7.37-130.68 160.299-91.49 106.973 82.945-114.343 130.68-160.299Z"/></g><g filter="url(#Y)" opacity=".2" style="mix-blend-mode:plus-lighter"><path fill="url(#Z)" d="m471.401-124.584 8.545 7.37-130.68 160.298-91.49 106.974 82.945-114.344 130.68-160.298Z"/></g></g><g filter="url(#aa)" opacity=".8"><path fill="url(#ab)" d="m502.379-124.258 7.239 6.81L394.726 34.878l-80.355 101.711 73.117-108.52 114.891-152.327Z"/></g><g filter="url(#ac)" opacity=".8"><path fill="url(#ad)" d="m478.841-154.502 7.238 6.81L371.188 4.634l-80.355 101.711L363.95-2.175l114.891-152.327Z"/></g><g filter="url(#ae)" opacity=".8" style="mix-blend-mode:soft-light"><path fill="url(#af)" d="m539.295-135.744 7.239 6.809L431.642 23.392l-80.355 101.71 73.117-108.52 114.891-152.326Z"/></g><g filter="url(#ag)" opacity=".2" style="mix-blend-mode:plus-lighter"><path fill="url(#ah)" d="m481.979-124.664 7.238 6.809L374.326 34.472l-80.355 101.711 73.116-108.52 114.892-152.327Z"/></g><g opacity=".5"><g filter="url(#ai)" opacity=".8"><path fill="url(#aj)" d="m479.206-123.598 11.39 8.855L323.533 70.694 206.434 194.347 312.143 61.839l167.063-185.437Z"/></g><g filter="url(#ak)" opacity=".8"><path fill="url(#al)" d="m461.274-137.066 11.39 8.854L305.601 57.226 188.503 180.877 294.212 48.371l167.062-185.437Z"/></g><g filter="url(#am)" opacity=".8"><path fill="url(#an)" d="m434.861-157.752 11.39 8.855L279.188 36.54 162.09 160.193 267.799 27.685l167.062-185.437Z"/></g><g filter="url(#ao)" opacity=".8" style="mix-blend-mode:soft-light"><path fill="url(#ap)" d="m534.86-136.287 11.39 8.855L379.187 58.005 262.089 181.658 367.798 49.15 534.86-136.287Z"/></g><g filter="url(#aq)" opacity=".2" style="mix-blend-mode:plus-lighter"><path fill="url(#ar)" d="m491.369-126.691 11.39 8.854L335.696 67.601 218.597 191.252l105.71-132.507 167.062-185.437Z"/></g><g filter="url(#as)" opacity=".2" style="mix-blend-mode:plus-lighter"><path fill="url(#at)" d="m405.681-67.783 11.389 8.855-167.062 185.437-117.099 123.653 105.709-132.508L405.681-67.783Z"/></g></g></g><g filter="url(#au)"><path fill="url(#av)" d="M0 0h28.704v598.773H0z" transform="rotate(49.87 312.118 453.821) skewX(-.038)"/></g><g filter="url(#aw)"><path fill="url(#ax)" d="M0 0h21.359v257.36H0z" transform="rotate(49.87 274.924 441.303) skewX(-.038)"/></g></g><defs><filter id="b" width="723.5" height="773.708" x="-60.404" y="-241.126" color-interpolation-filters="sRGB" filterUnits="userSpaceOnUse"><feFlood flood-opacity="0" result="BackgroundImageFix"/><feBlend in="SourceGraphic" in2="BackgroundImageFix" result="shape"/><feGaussianBlur result="effect1_foregroundBlur_654_110848" stdDeviation="42.648"/></filter><filter id="c" width="486.257" height="474.259" x="109.306" y="-160.649" color-interpolation-filters="sRGB" filterUnits="userSpaceOnUse"><feFlood flood-opacity="0" result="BackgroundImageFix"/><feBlend in="SourceGraphic" in2="BackgroundImageFix" result="shape"/><feGaussianBlur result="effect1_foregroundBlur_654_110848" stdDeviation="36.725"/></filter><filter id="e" width="486.257" height="474.259" x="96.551" y="-198.11" color-interpolation-filters="sRGB" filterUnits="userSpaceOnUse"><feFlood flood-opacity="0" result="BackgroundImageFix"/><feBlend in="SourceGraphic" in2="BackgroundImageFix" result="shape"/><feGaussianBlur result="effect1_foregroundBlur_654_110848" stdDeviation="36.725"/></filter><filter id="g" width="486.257" height="474.259" x="156.565" y="-175.376" color-interpolation-filters="sRGB" filterUnits="userSpaceOnUse"><feFlood flood-opacity="0" result="BackgroundImageFix"/><feBlend in="SourceGraphic" in2="BackgroundImageFix" result="shape"/><feGaussianBlur result="effect1_foregroundBlur_654_110848" stdDeviation="36.725"/></filter><filter id="i" width="422.929" height="410.931" x="117.978" y="-129.268" color-interpolation-filters="sRGB" filterUnits="userSpaceOnUse"><feFlood flood-opacity="0" result="BackgroundImageFix"/><feBlend in="SourceGraphic" in2="BackgroundImageFix" result="shape"/><feGaussianBlur result="effect1_foregroundBlur_654_110848" stdDeviation="20.893"/></filter><filter id="k" width="559.54" height="557.075" x="26.97" y="-154.588" color-interpolation-filters="sRGB" filterUnits="userSpaceOnUse"><feFlood flood-opacity="0" result="BackgroundImageFix"/><feBlend in="SourceGraphic" in2="BackgroundImageFix" result="shape"/><feGaussianBlur result="effect1_foregroundBlur_654_110848" stdDeviation="36.725"/></filter><filter id="m" width="559.54" height="557.075" x="18.09" y="-196.45" color-interpolation-filters="sRGB" filterUnits="userSpaceOnUse"><feFlood flood-opacity="0" result="BackgroundImageFix"/><feBlend in="SourceGraphic" in2="BackgroundImageFix" result="shape"/><feGaussianBlur result="effect1_foregroundBlur_654_110848" stdDeviation="36.725"/></filter><filter id="o" width="559.54" height="557.075" x="80.454" y="-176.247" color-interpolation-filters="sRGB" filterUnits="userSpaceOnUse"><feFlood flood-opacity="0" result="BackgroundImageFix"/><feBlend in="SourceGraphic" in2="BackgroundImageFix" result="shape"/><feGaussianBlur result="effect1_foregroundBlur_654_110848" stdDeviation="36.725"/></filter><filter id="q" width="496.212" height="493.747" x="33.613" y="-120.961" color-interpolation-filters="sRGB" filterUnits="userSpaceOnUse"><feFlood flood-opacity="0" result="BackgroundImageFix"/><feBlend in="SourceGraphic" in2="BackgroundImageFix" result="shape"/><feGaussianBlur result="effect1_foregroundBlur_654_110848" stdDeviation="20.893"/></filter><filter id="s" width="553.345" height="542.65" x="45.062" y="-149.762" color-interpolation-filters="sRGB" filterUnits="userSpaceOnUse"><feFlood flood-opacity="0" result="BackgroundImageFix"/><feBlend in="SourceGraphic" in2="BackgroundImageFix" result="shape"/><feGaussianBlur result="effect1_foregroundBlur_654_110848" stdDeviation="36.725"/></filter><filter id="u" width="553.345" height="542.65" x="36.046" y="-191.135" color-interpolation-filters="sRGB" filterUnits="userSpaceOnUse"><feFlood flood-opacity="0" result="BackgroundImageFix"/><feBlend in="SourceGraphic" in2="BackgroundImageFix" result="shape"/><feGaussianBlur result="effect1_foregroundBlur_654_110848" stdDeviation="36.725"/></filter><filter id="w" width="553.345" height="542.65" x="97.905" y="-170.038" color-interpolation-filters="sRGB" filterUnits="userSpaceOnUse"><feFlood flood-opacity="0" result="BackgroundImageFix"/><feBlend in="SourceGraphic" in2="BackgroundImageFix" result="shape"/><feGaussianBlur result="effect1_foregroundBlur_654_110848" stdDeviation="36.725"/></filter><filter id="y" width="490.017" height="479.321" x="51.96" y="-116.655" color-interpolation-filters="sRGB" filterUnits="userSpaceOnUse"><feFlood flood-opacity="0" result="BackgroundImageFix"/><feBlend in="SourceGraphic" in2="BackgroundImageFix" result="shape"/><feGaussianBlur result="effect1_foregroundBlur_654_110848" stdDeviation="20.893"/></filter><filter id="A" width="511.986" height="622.077" x="42.545" y="-188.241" color-interpolation-filters="sRGB" filterUnits="userSpaceOnUse"><feFlood flood-opacity="0" result="BackgroundImageFix"/><feBlend in="SourceGraphic" in2="BackgroundImageFix" result="shape"/><feGaussianBlur result="effect1_foregroundBlur_654_110848" stdDeviation="36.725"/></filter><filter id="C" width="511.986" height="622.077" x="-2.966" y="-229.28" color-interpolation-filters="sRGB" filterUnits="userSpaceOnUse"><feFlood flood-opacity="0" result="BackgroundImageFix"/><feBlend in="SourceGraphic" in2="BackgroundImageFix" result="shape"/><feGaussianBlur result="effect1_foregroundBlur_654_110848" stdDeviation="36.725"/></filter><filter id="E" width="511.986" height="622.077" x="107.394" y="-213.29" color-interpolation-filters="sRGB" filterUnits="userSpaceOnUse"><feFlood flood-opacity="0" result="BackgroundImageFix"/><feBlend in="SourceGraphic" in2="BackgroundImageFix" result="shape"/><feGaussianBlur result="effect1_foregroundBlur_654_110848" stdDeviation="36.725"/></filter><filter id="G" width="448.657" height="558.749" x="88.428" y="-162.493" color-interpolation-filters="sRGB" filterUnits="userSpaceOnUse"><feFlood flood-opacity="0" result="BackgroundImageFix"/><feBlend in="SourceGraphic" in2="BackgroundImageFix" result="shape"/><feGaussianBlur result="effect1_foregroundBlur_654_110848" stdDeviation="20.893"/></filter><filter id="I" width="448.658" height="558.749" x="-16.893" y="-69.678" color-interpolation-filters="sRGB" filterUnits="userSpaceOnUse"><feFlood flood-opacity="0" result="BackgroundImageFix"/><feBlend in="SourceGraphic" in2="BackgroundImageFix" result="shape"/><feGaussianBlur result="effect1_foregroundBlur_654_110848" stdDeviation="20.893"/></filter><filter id="K" width="390.568" height="437.694" x="181.916" y="-196.411" color-interpolation-filters="sRGB" filterUnits="userSpaceOnUse"><feFlood flood-opacity="0" result="BackgroundImageFix"/><feBlend in="SourceGraphic" in2="BackgroundImageFix" result="shape"/><feGaussianBlur result="effect1_foregroundBlur_654_110848" stdDeviation="36.725"/></filter><filter id="M" width="390.568" height="437.694" x="150.733" y="-231.297" color-interpolation-filters="sRGB" filterUnits="userSpaceOnUse"><feFlood flood-opacity="0" result="BackgroundImageFix"/><feBlend in="SourceGraphic" in2="BackgroundImageFix" result="shape"/><feGaussianBlur result="effect1_foregroundBlur_654_110848" stdDeviation="36.725"/></filter><filter id="O" width="390.568" height="437.694" x="229.075" y="-208.477" color-interpolation-filters="sRGB" filterUnits="userSpaceOnUse"><feFlood flood-opacity="0" result="BackgroundImageFix"/><feBlend in="SourceGraphic" in2="BackgroundImageFix" result="shape"/><feGaussianBlur result="effect1_foregroundBlur_654_110848" stdDeviation="36.725"/></filter><filter id="Q" width="327.239" height="374.366" x="187.32" y="-165.733" color-interpolation-filters="sRGB" filterUnits="userSpaceOnUse"><feFlood flood-opacity="0" result="BackgroundImageFix"/><feBlend in="SourceGraphic" in2="BackgroundImageFix" result="shape"/><feGaussianBlur result="effect1_foregroundBlur_654_110848" stdDeviation="20.893"/></filter><filter id="S" width="369.07" height="421.542" x="208.05" y="-197.264" color-interpolation-filters="sRGB" filterUnits="userSpaceOnUse"><feFlood flood-opacity="0" result="BackgroundImageFix"/><feBlend in="SourceGraphic" in2="BackgroundImageFix" result="shape"/><feGaussianBlur result="effect1_foregroundBlur_654_110848" stdDeviation="36.725"/></filter><filter id="U" width="369.07" height="421.542" x="180.113" y="-229.856" color-interpolation-filters="sRGB" filterUnits="userSpaceOnUse"><feFlood flood-opacity="0" result="BackgroundImageFix"/><feBlend in="SourceGraphic" in2="BackgroundImageFix" result="shape"/><feGaussianBlur result="effect1_foregroundBlur_654_110848" stdDeviation="36.725"/></filter><filter id="W" width="369.07" height="421.542" x="250.75" y="-208.887" color-interpolation-filters="sRGB" filterUnits="userSpaceOnUse"><feFlood flood-opacity="0" result="BackgroundImageFix"/><feBlend in="SourceGraphic" in2="BackgroundImageFix" result="shape"/><feGaussianBlur result="effect1_foregroundBlur_654_110848" stdDeviation="36.725"/></filter><filter id="Y" width="305.742" height="358.214" x="215.99" y="-166.37" color-interpolation-filters="sRGB" filterUnits="userSpaceOnUse"><feFlood flood-opacity="0" result="BackgroundImageFix"/><feBlend in="SourceGraphic" in2="BackgroundImageFix" result="shape"/><feGaussianBlur result="effect1_foregroundBlur_654_110848" stdDeviation="20.893"/></filter><filter id="aa" width="342.146" height="407.745" x="240.921" y="-197.708" color-interpolation-filters="sRGB" filterUnits="userSpaceOnUse"><feFlood flood-opacity="0" result="BackgroundImageFix"/><feBlend in="SourceGraphic" in2="BackgroundImageFix" result="shape"/><feGaussianBlur result="effect1_foregroundBlur_654_110848" stdDeviation="36.725"/></filter><filter id="ac" width="342.146" height="407.745" x="217.383" y="-227.952" color-interpolation-filters="sRGB" filterUnits="userSpaceOnUse"><feFlood flood-opacity="0" result="BackgroundImageFix"/><feBlend in="SourceGraphic" in2="BackgroundImageFix" result="shape"/><feGaussianBlur result="effect1_foregroundBlur_654_110848" stdDeviation="36.725"/></filter><filter id="ae" width="342.146" height="407.745" x="277.837" y="-209.194" color-interpolation-filters="sRGB" filterUnits="userSpaceOnUse"><feFlood flood-opacity="0" result="BackgroundImageFix"/><feBlend in="SourceGraphic" in2="BackgroundImageFix" result="shape"/><feGaussianBlur result="effect1_foregroundBlur_654_110848" stdDeviation="36.725"/></filter><filter id="ag" width="278.817" height="344.417" x="252.185" y="-166.45" color-interpolation-filters="sRGB" filterUnits="userSpaceOnUse"><feFlood flood-opacity="0" result="BackgroundImageFix"/><feBlend in="SourceGraphic" in2="BackgroundImageFix" result="shape"/><feGaussianBlur result="effect1_foregroundBlur_654_110848" stdDeviation="20.893"/></filter><filter id="ai" width="431.061" height="464.845" x="132.985" y="-197.047" color-interpolation-filters="sRGB" filterUnits="userSpaceOnUse"><feFlood flood-opacity="0" result="BackgroundImageFix"/><feBlend in="SourceGraphic" in2="BackgroundImageFix" result="shape"/><feGaussianBlur result="effect1_foregroundBlur_654_110848" stdDeviation="36.725"/></filter><filter id="ak" width="431.061" height="464.845" x="115.053" y="-210.516" color-interpolation-filters="sRGB" filterUnits="userSpaceOnUse"><feFlood flood-opacity="0" result="BackgroundImageFix"/><feBlend in="SourceGraphic" in2="BackgroundImageFix" result="shape"/><feGaussianBlur result="effect1_foregroundBlur_654_110848" stdDeviation="36.725"/></filter><filter id="am" width="431.061" height="464.845" x="88.64" y="-231.202" color-interpolation-filters="sRGB" filterUnits="userSpaceOnUse"><feFlood flood-opacity="0" result="BackgroundImageFix"/><feBlend in="SourceGraphic" in2="BackgroundImageFix" result="shape"/><feGaussianBlur result="effect1_foregroundBlur_654_110848" stdDeviation="36.725"/></filter><filter id="ao" width="431.061" height="464.845" x="188.639" y="-209.737" color-interpolation-filters="sRGB" filterUnits="userSpaceOnUse"><feFlood flood-opacity="0" result="BackgroundImageFix"/><feBlend in="SourceGraphic" in2="BackgroundImageFix" result="shape"/><feGaussianBlur result="effect1_foregroundBlur_654_110848" stdDeviation="36.725"/></filter><filter id="aq" width="367.732" height="401.517" x="176.812" y="-168.477" color-interpolation-filters="sRGB" filterUnits="userSpaceOnUse"><feFlood flood-opacity="0" result="BackgroundImageFix"/><feBlend in="SourceGraphic" in2="BackgroundImageFix" result="shape"/><feGaussianBlur result="effect1_foregroundBlur_654_110848" stdDeviation="20.893"/></filter><filter id="as" width="367.732" height="401.517" x="91.124" y="-109.569" color-interpolation-filters="sRGB" filterUnits="userSpaceOnUse"><feFlood flood-opacity="0" result="BackgroundImageFix"/><feBlend in="SourceGraphic" in2="BackgroundImageFix" result="shape"/><feGaussianBlur result="effect1_foregroundBlur_654_110848" stdDeviation="20.893"/></filter><filter id="au" width="829.969" height="760.964" x="-176.836" y="-254.018" color-interpolation-filters="sRGB" filterUnits="userSpaceOnUse"><feFlood flood-opacity="0" result="BackgroundImageFix"/><feBlend in="SourceGraphic" in2="BackgroundImageFix" result="shape"/><feGaussianBlur result="effect1_foregroundBlur_654_110848" stdDeviation="88.35"/></filter><filter id="aw" width="450.65" height="422.074" x="118.257" y="-173.33" color-interpolation-filters="sRGB" filterUnits="userSpaceOnUse"><feFlood flood-opacity="0" result="BackgroundImageFix"/><feBlend in="SourceGraphic" in2="BackgroundImageFix" result="shape"/><feGaussianBlur result="effect1_foregroundBlur_654_110848" stdDeviation="60"/></filter><linearGradient id="d" x1="519.576" x2="287.624" y1="-82.993" y2="56.93" gradientUnits="userSpaceOnUse"><stop stop-opacity="0"/><stop offset="1" stop-color="#3E3E3F"/></linearGradient><linearGradient id="f" x1="506.821" x2="274.869" y1="-120.454" y2="19.469" gradientUnits="userSpaceOnUse"><stop stop-opacity="0"/><stop offset="1" stop-color="#3E3E3F"/></linearGradient><linearGradient id="h" x1="566.835" x2="334.882" y1="-97.72" y2="42.203" gradientUnits="userSpaceOnUse"><stop stop-opacity="0"/><stop offset="1" stop-color="#3E3E3F"/></linearGradient><linearGradient id="j" x1="496.584" x2="264.631" y1="-83.276" y2="56.647" gradientUnits="userSpaceOnUse"><stop stop-color="#494949"/><stop offset="1" stop-color="#494949"/></linearGradient><linearGradient id="l" x1="510.859" x2="218.255" y1="-76.549" y2="63.789" gradientUnits="userSpaceOnUse"><stop stop-opacity="0"/><stop offset="1" stop-color="#3E3E3F"/></linearGradient><linearGradient id="n" x1="501.979" x2="209.375" y1="-118.41" y2="21.928" gradientUnits="userSpaceOnUse"><stop stop-opacity="0"/><stop offset="1" stop-color="#3E3E3F"/></linearGradient><linearGradient id="p" x1="564.342" x2="271.738" y1="-98.207" y2="42.131" gradientUnits="userSpaceOnUse"><stop stop-opacity="0"/><stop offset="1" stop-color="#3E3E3F"/></linearGradient><linearGradient id="r" x1="485.837" x2="193.233" y1="-74.586" y2="65.752" gradientUnits="userSpaceOnUse"><stop stop-color="#494949"/><stop offset="1" stop-color="#494949"/></linearGradient><linearGradient id="t" x1="522.753" x2="236.616" y1="-71.752" y2="66.549" gradientUnits="userSpaceOnUse"><stop stop-opacity="0"/><stop offset="1" stop-color="#3E3E3F"/></linearGradient><linearGradient id="v" x1="513.737" x2="227.6" y1="-113.125" y2="25.176" gradientUnits="userSpaceOnUse"><stop stop-opacity="0"/><stop offset="1" stop-color="#3E3E3F"/></linearGradient><linearGradient id="x" x1="575.596" x2="289.459" y1="-92.027" y2="46.274" gradientUnits="userSpaceOnUse"><stop stop-opacity="0"/><stop offset="1" stop-color="#3E3E3F"/></linearGradient><linearGradient id="z" x1="497.987" x2="211.85" y1="-70.309" y2="67.993" gradientUnits="userSpaceOnUse"><stop stop-color="#494949"/><stop offset="1" stop-color="#494949"/></linearGradient><linearGradient id="B" x1="475.242" x2="238.988" y1="-109.463" y2="149.514" gradientUnits="userSpaceOnUse"><stop stop-color="#fff"/><stop offset=".557" stop-color="#fff"/><stop offset="1" stop-opacity=".3"/></linearGradient><linearGradient id="D" x1="429.731" x2="193.476" y1="-150.503" y2="108.475" gradientUnits="userSpaceOnUse"><stop stop-opacity="0"/><stop offset="1" stop-color="#3E3E3F"/></linearGradient><linearGradient id="F" x1="540.091" x2="303.837" y1="-134.512" y2="124.466" gradientUnits="userSpaceOnUse"><stop stop-color="#fff"/><stop offset=".557" stop-color="#fff"/><stop offset="1" stop-opacity=".3"/></linearGradient><linearGradient id="H" x1="489.46" x2="253.206" y1="-115.379" y2="143.598" gradientUnits="userSpaceOnUse"><stop stop-color="#494949"/><stop offset="1" stop-color="#494949"/></linearGradient><linearGradient id="J" x1="384.14" x2="147.885" y1="-22.565" y2="236.413" gradientUnits="userSpaceOnUse"><stop stop-color="#494949"/><stop offset="1" stop-color="#494949"/></linearGradient><linearGradient id="L" x1="494.277" x2="352.367" y1="-119.009" y2="51.83" gradientUnits="userSpaceOnUse"><stop stop-opacity="0"/><stop offset="1" stop-color="#3E3E3F"/></linearGradient><linearGradient id="N" x1="463.093" x2="321.183" y1="-153.896" y2="16.943" gradientUnits="userSpaceOnUse"><stop stop-opacity="0"/><stop offset="1" stop-color="#3E3E3F"/></linearGradient><linearGradient id="P" x1="541.435" x2="399.525" y1="-131.076" y2="39.764" gradientUnits="userSpaceOnUse"><stop stop-opacity="0"/><stop offset="1" stop-color="#3E3E3F"/></linearGradient><linearGradient id="R" x1="468.016" x2="326.106" y1="-119.996" y2="50.844" gradientUnits="userSpaceOnUse"><stop stop-color="#494949"/><stop offset="1" stop-color="#494949"/></linearGradient><linearGradient id="T" x1="499.398" x2="364.374" y1="-120.13" y2="36.422" gradientUnits="userSpaceOnUse"><stop stop-opacity="0"/><stop offset="1" stop-color="#3E3E3F"/></linearGradient><linearGradient id="V" x1="471.461" x2="336.437" y1="-152.721" y2="3.831" gradientUnits="userSpaceOnUse"><stop stop-opacity="0"/><stop offset="1" stop-color="#3E3E3F"/></linearGradient><linearGradient id="X" x1="542.098" x2="407.075" y1="-131.753" y2="24.799" gradientUnits="userSpaceOnUse"><stop stop-opacity="0"/><stop offset="1" stop-color="#3E3E3F"/></linearGradient><linearGradient id="Z" x1="475.674" x2="340.65" y1="-120.899" y2="35.653" gradientUnits="userSpaceOnUse"><stop stop-color="#494949"/><stop offset="1" stop-color="#494949"/></linearGradient><linearGradient id="ab" x1="505.998" x2="376.038" y1="-120.853" y2="17.297" gradientUnits="userSpaceOnUse"><stop stop-opacity="0"/><stop offset="1" stop-color="#3E3E3F"/></linearGradient><linearGradient id="ad" x1="482.46" x2="352.5" y1="-151.097" y2="-12.947" gradientUnits="userSpaceOnUse"><stop stop-opacity="0"/><stop offset="1" stop-color="#3E3E3F"/></linearGradient><linearGradient id="af" x1="542.914" x2="412.954" y1="-132.339" y2="5.811" gradientUnits="userSpaceOnUse"><stop stop-opacity="0"/><stop offset="1" stop-color="#3E3E3F"/></linearGradient><linearGradient id="ah" x1="485.598" x2="355.637" y1="-121.259" y2="16.891" gradientUnits="userSpaceOnUse"><stop stop-color="#494949"/><stop offset="1" stop-color="#494949"/></linearGradient><linearGradient id="aj" x1="484.901" x2="332.108" y1="-119.17" y2="77.361" gradientUnits="userSpaceOnUse"><stop stop-color="#fff"/><stop offset=".557" stop-color="#fff"/><stop offset="1" stop-opacity=".3"/></linearGradient><linearGradient id="al" x1="466.969" x2="314.176" y1="-132.639" y2="63.892" gradientUnits="userSpaceOnUse"><stop stop-color="#fff"/><stop offset=".557" stop-color="#fff"/><stop offset="1" stop-opacity=".3"/></linearGradient><linearGradient id="an" x1="440.556" x2="287.763" y1="-153.325" y2="43.206" gradientUnits="userSpaceOnUse"><stop stop-opacity="0"/><stop offset="1" stop-color="#3E3E3F"/></linearGradient><linearGradient id="ap" x1="540.555" x2="387.762" y1="-131.86" y2="64.671" gradientUnits="userSpaceOnUse"><stop stop-color="#fff"/><stop offset=".557" stop-color="#fff"/><stop offset="1" stop-opacity=".3"/></linearGradient><linearGradient id="ar" x1="497.064" x2="344.271" y1="-122.264" y2="74.267" gradientUnits="userSpaceOnUse"><stop stop-color="#494949"/><stop offset="1" stop-color="#494949"/></linearGradient><linearGradient id="at" x1="411.375" x2="258.582" y1="-63.356" y2="133.175" gradientUnits="userSpaceOnUse"><stop stop-color="#494949"/><stop offset="1" stop-color="#494949"/></linearGradient><linearGradient id="av" x1="14.352" x2="14.352" y1="0" y2="598.773" gradientUnits="userSpaceOnUse"><stop stop-color="#fff"/><stop offset="1" stop-color="#fff" stop-opacity="0"/></linearGradient><linearGradient id="ax" x1="10.68" x2="10.68" y1="0" y2="257.36" gradientUnits="userSpaceOnUse"><stop stop-color="#fff"/><stop offset="1" stop-color="#fff" stop-opacity="0"/></linearGradient><clipPath id="a"><path fill="#fff" d="M0 0h406v415H0z"/></clipPath></defs></svg>