<svg xmlns="http://www.w3.org/2000/svg" width="155" height="50" fill="none"><g filter="url(#a)"><g clip-path="url(#b)"><rect width="47.917" height="47.917" x="1.042" y="1.041" fill="url(#c)" rx="13.63"/><g filter="url(#d)"><path fill="url(#e)" stroke="url(#f)" stroke-width=".426" d="m24.75 14.417.257-.412-.477.09c-1.375.262-3.213 1.392-5.042 3.004-1.836 1.62-3.692 3.751-5.099 6.06-1.405 2.304-2.373 4.803-2.409 7.151-.036 2.361.87 4.56 3.187 6.233l.02.014.02.009c5.63 2.43 10.795-.14 14.514-3.26 1.864-1.564 3.378-3.276 4.426-4.596a32.55 32.55 0 0 0 1.21-1.621 22.104 22.104 0 0 0 .398-.591l.02-.033.006-.008.001-.002v-.001l-.18-.113.181.113.365-.583-.63.274c-2.852 1.24-5.074 1.422-6.574 1.3a7.75 7.75 0 0 1-1.705-.32 4.672 4.672 0 0 1-.533-.205l-.024-.012-.005-.003-.007-.003-.007-.003c-1.898-.858-2.953-2.057-3.483-3.365-.532-1.315-.543-2.76-.312-4.116.23-1.355.701-2.606 1.116-3.52a16.336 16.336 0 0 1 .706-1.38c.02-.034.035-.06.046-.076l.011-.02.003-.004Z"/><g filter="url(#g)"><path fill="url(#h)" d="M27.83 13.052s-3.01 7.021 1.002 10.281c0 0 2.006 2.507 7.523 1.003 3.26-5.015.752-13.54-8.526-11.284Z" shape-rendering="crispEdges"/></g></g></g><rect width="47.065" height="47.065" x="1.468" y="1.467" stroke="url(#i)" stroke-width=".852" rx="13.204"/></g><path fill="#fff" d="M137.799 32.538c-.762 0-1.445-.135-2.051-.406a3.326 3.326 0 0 1-1.431-1.218c-.349-.534-.523-1.192-.523-1.976 0-.669.124-1.224.374-1.666a2.89 2.89 0 0 1 1.014-1.057 5.278 5.278 0 0 1 1.464-.599c.541-.142 1.1-.242 1.677-.299a91.154 91.154 0 0 0 1.709-.203c.434-.056.747-.149.94-.277.199-.128.299-.328.299-.598v-.054c0-.576-.171-1.025-.513-1.346-.342-.32-.84-.48-1.495-.48-.691 0-1.239.15-1.645.448-.399.3-.67.652-.812 1.058l-2.617-.374c.207-.726.548-1.332 1.025-1.816a4.474 4.474 0 0 1 1.741-1.1c.691-.25 1.453-.374 2.286-.374.57 0 1.14.068 1.709.203a4.72 4.72 0 0 1 1.57.662c.477.314.858.734 1.143 1.26.285.528.427 1.186.427 1.977v7.99h-2.702v-1.646h-.085a3.469 3.469 0 0 1-1.88 1.624c-.456.178-.997.267-1.624.267Zm.716-2.072c.57 0 1.061-.11 1.474-.331a2.54 2.54 0 0 0 .961-.898 2.33 2.33 0 0 0 .342-1.228v-1.4a1.49 1.49 0 0 1-.449.204c-.206.057-.441.11-.705.16-.263.05-.523.093-.779.128-.25.036-.467.064-.652.086a4.72 4.72 0 0 0-1.132.288 1.899 1.899 0 0 0-.78.534c-.192.228-.288.523-.288.887 0 .52.189.911.566 1.175.377.263.858.395 1.442.395Zm-23.018 1.826V20.351h2.681v2.04h.15a3.173 3.173 0 0 1 1.239-1.602c.576-.392 1.26-.588 2.05-.588.812 0 1.496.196 2.051.588.556.391.944.925 1.164 1.602h.129a3.358 3.358 0 0 1 1.345-1.592c.627-.398 1.375-.598 2.243-.598 1.097 0 1.991.35 2.681 1.047.698.69 1.047 1.702 1.047 3.033v8.011h-2.82V24.71c0-.734-.199-1.271-.598-1.613-.391-.35-.872-.524-1.442-.524-.676 0-1.203.214-1.581.641-.377.42-.566.962-.566 1.624v7.455h-2.777v-7.69c0-.62-.181-1.111-.545-1.474-.363-.37-.843-.556-1.441-.556-.406 0-.777.104-1.111.31a2.234 2.234 0 0 0-.801.865c-.193.37-.289.798-.289 1.282v7.263h-2.809Zm-6.825.235c-1.196 0-2.229-.249-3.098-.748a5.108 5.108 0 0 1-2.008-2.136c-.463-.918-.694-2-.694-3.247 0-1.232.231-2.31.694-3.236.463-.933 1.115-1.66 1.955-2.18.84-.519 1.83-.779 2.969-.779a6.12 6.12 0 0 1 2.083.353 4.785 4.785 0 0 1 1.752 1.09c.512.49.915 1.117 1.207 1.879.292.755.438 1.656.438 2.702v.876h-9.784v-1.89h8.384l-1.313.555c0-.676-.104-1.264-.31-1.762-.207-.506-.513-.901-.919-1.186-.406-.285-.911-.427-1.516-.427-.606 0-1.122.142-1.549.427-.427.285-.751.67-.972 1.154a3.767 3.767 0 0 0-.331 1.602v1.314c0 .726.124 1.349.374 1.869a2.76 2.76 0 0 0 1.068 1.175c.463.27 1 .406 1.613.406a3.3 3.3 0 0 0 1.089-.171c.335-.114.62-.285.855-.513a2.32 2.32 0 0 0 .555-.865l2.627.31a4.195 4.195 0 0 1-.95 1.815c-.456.513-1.043.912-1.763 1.197-.712.277-1.53.416-2.456.416Zm-12.657-.234V20.352h2.723v2.008h.129c.213-.698.587-1.232 1.121-1.602a3.087 3.087 0 0 1 1.827-.567c.149 0 .32.008.512.022.2.014.363.032.492.053v2.585a2.776 2.776 0 0 0-.567-.107 6.671 6.671 0 0 0-.737-.043c-.519 0-.982.11-1.388.332-.406.22-.726.523-.961.907-.228.385-.342.834-.342 1.346v7.007h-2.81Zm-12.818 4.464V20.351h2.756v1.976h.17c.143-.285.346-.591.61-.919.263-.335.62-.62 1.068-.854.456-.235 1.036-.353 1.74-.353.92 0 1.749.235 2.49.705.74.47 1.328 1.16 1.762 2.072.441.912.662 2.033.662 3.365 0 1.31-.213 2.424-.64 3.343-.428.919-1.015 1.62-1.763 2.104-.74.477-1.58.716-2.52.716-.677 0-1.243-.114-1.7-.342a3.676 3.676 0 0 1-1.089-.833 4.778 4.778 0 0 1-.62-.93h-.117v6.356h-2.809Zm5.565-6.558c.62 0 1.136-.168 1.549-.502.42-.335.737-.794.95-1.378.214-.584.321-1.246.321-1.987 0-.74-.107-1.4-.32-1.976-.214-.577-.527-1.029-.94-1.356-.413-.328-.933-.492-1.56-.492-.605 0-1.118.157-1.538.47-.413.314-.73.759-.95 1.335-.214.57-.321 1.243-.321 2.02 0 .768.107 1.445.32 2.029.221.576.542 1.029.962 1.356.42.32.929.48 1.527.48Zm-10.457-2.915v-6.932h2.81v11.941H78.39v-2.125h-.128a3.634 3.634 0 0 1-1.325 1.644c-.612.428-1.367.638-2.264.63-.784 0-1.474-.17-2.072-.512-.592-.349-1.058-.858-1.4-1.527-.334-.677-.502-1.492-.502-2.447v-7.604h2.81v7.177c0 .748.206 1.346.619 1.795.42.448.968.67 1.645.662.413 0 .812-.1 1.196-.3.392-.198.712-.498.962-.896.249-.4.373-.901.373-1.506Zm-15.242 5.254c-1.239 0-2.314-.192-3.226-.576-.91-.385-1.623-.944-2.136-1.677-.512-.741-.79-1.638-.833-2.692h2.841c.043.555.214 1.018.513 1.388.3.364.69.638 1.175.823a4.603 4.603 0 0 0 1.634.278c.627 0 1.179-.097 1.656-.289.477-.192.85-.46 1.121-.8.27-.343.406-.741.406-1.197 0-.413-.12-.751-.363-1.015-.242-.27-.577-.498-1.004-.683a9.601 9.601 0 0 0-1.506-.492l-1.805-.47c-1.31-.334-2.343-.844-3.098-1.527-.755-.69-1.132-1.61-1.132-2.756 0-.94.253-1.759.759-2.457.505-.704 1.196-1.253 2.072-1.645.883-.391 1.88-.587 2.99-.587 1.133 0 2.126.196 2.98.587.855.392 1.524.933 2.008 1.624.485.69.737 1.485.759 2.382h-2.788c-.071-.684-.374-1.21-.908-1.58-.527-.378-1.221-.567-2.083-.567-.598 0-1.114.09-1.548.267-.428.178-.755.424-.983.737a1.77 1.77 0 0 0-.342 1.068c0 .442.132.805.395 1.09.27.277.613.502 1.026.673.42.17.847.313 1.281.427l1.485.374c.598.142 1.175.334 1.73.576a6.046 6.046 0 0 1 1.496.898c.448.356.8.79 1.057 1.303.264.512.395 1.114.395 1.805 0 .926-.238 1.745-.715 2.457-.477.704-1.165 1.256-2.062 1.655-.897.399-1.98.598-3.247.598Z"/><path fill="#777D88" d="M152.364 8.375v6.255h-1.182V8.375h1.182Zm-3.697 6.081c-.383.203-.826.304-1.33.304-.503 0-.947-.101-1.329-.304a2.243 2.243 0 0 1-.895-.864c-.214-.37-.321-.807-.321-1.308v-3.9l1.199-.009v3.9c0 .206.035.393.104.561.07.168.165.313.287.434.124.122.268.216.43.283.165.063.34.095.525.095.192 0 .368-.033.53-.1a1.27 1.27 0 0 0 .713-.716 1.45 1.45 0 0 0 .104-.556V8.375h1.199v3.91c0 .5-.107.936-.322 1.307-.214.37-.512.659-.894.864Z"/><defs><linearGradient id="c" x1="25" x2="25" y1="1.041" y2="48.958" gradientUnits="userSpaceOnUse"><stop stop-color="#2E2F30"/><stop offset="1" stop-color="#191A1A"/></linearGradient><linearGradient id="e" x1="24.014" x2="14.82" y1="25.246" y2="35.402" gradientUnits="userSpaceOnUse"><stop stop-color="#fff"/><stop offset="1" stop-color="#fff" stop-opacity=".5"/></linearGradient><linearGradient id="f" x1="29.88" x2="14.352" y1="20.562" y2="36.535" gradientUnits="userSpaceOnUse"><stop offset=".25" stop-color="#fff" stop-opacity="0"/><stop offset=".753" stop-color="#fff"/></linearGradient><linearGradient id="h" x1="36.831" x2="27.728" y1="15.634" y2="23.642" gradientUnits="userSpaceOnUse"><stop stop-color="#fff"/><stop offset="1" stop-color="#fff" stop-opacity=".5"/></linearGradient><linearGradient id="i" x1="25" x2="25" y1="1.041" y2="48.958" gradientUnits="userSpaceOnUse"><stop stop-color="#191A1A" stop-opacity="0"/><stop offset="1" stop-color="#2E2F30"/></linearGradient><filter id="a" width="47.917" height="48.768" x="1.042" y="1.041" color-interpolation-filters="sRGB" filterUnits="userSpaceOnUse"><feFlood flood-opacity="0" result="BackgroundImageFix"/><feBlend in="SourceGraphic" in2="BackgroundImageFix" result="shape"/><feColorMatrix in="SourceAlpha" result="hardAlpha" values="0 0 0 0 0 0 0 0 0 0 0 0 0 0 0 0 0 0 127 0"/><feOffset dy=".852"/><feGaussianBlur stdDeviation=".426"/><feComposite in2="hardAlpha" k2="-1" k3="1" operator="arithmetic"/><feColorMatrix values="0 0 0 0 1 0 0 0 0 1 0 0 0 0 1 0 0 0 0.1 0"/><feBlend in2="shape" result="effect1_innerShadow_1011_6969"/></filter><filter id="d" width="148.072" height="148.073" x="-49.036" y="-39.548" color-interpolation-filters="sRGB" filterUnits="userSpaceOnUse"><feFlood flood-opacity="0" result="BackgroundImageFix"/><feColorMatrix in="SourceAlpha" result="hardAlpha" values="0 0 0 0 0 0 0 0 0 0 0 0 0 0 0 0 0 0 127 0"/><feOffset dy="9.488"/><feGaussianBlur stdDeviation="30.363"/><feColorMatrix values="0 0 0 0 0 0 0 0 0 0 0 0 0 0 0 0 0 0 0.7 0"/><feBlend in2="BackgroundImageFix" result="effect1_dropShadow_1011_6969"/><feColorMatrix in="SourceAlpha" result="hardAlpha" values="0 0 0 0 0 0 0 0 0 0 0 0 0 0 0 0 0 0 127 0"/><feOffset dy="3.321"/><feGaussianBlur stdDeviation="12.778"/><feColorMatrix values="0 0 0 0 0 0 0 0 0 0 0 0 0 0 0 0 0 0 0.17 0"/><feBlend in2="effect1_dropShadow_1011_6969" result="effect2_dropShadow_1011_6969"/><feColorMatrix in="SourceAlpha" result="hardAlpha" values="0 0 0 0 0 0 0 0 0 0 0 0 0 0 0 0 0 0 127 0"/><feOffset dy=".852"/><feGaussianBlur stdDeviation=".426"/><feComposite in2="hardAlpha" operator="out"/><feColorMatrix values="0 0 0 0 0 0 0 0 0 0 0 0 0 0 0 0 0 0 0.6 0"/><feBlend in2="effect2_dropShadow_1011_6969" result="effect3_dropShadow_1011_6969"/><feColorMatrix in="SourceAlpha" result="hardAlpha" values="0 0 0 0 0 0 0 0 0 0 0 0 0 0 0 0 0 0 127 0"/><feOffset dy="1.704"/><feGaussianBlur stdDeviation=".852"/><feComposite in2="hardAlpha" operator="out"/><feColorMatrix values="0 0 0 0 0 0 0 0 0 0 0 0 0 0 0 0 0 0 0.6 0"/><feBlend in2="effect3_dropShadow_1011_6969" result="effect4_dropShadow_1011_6969"/><feColorMatrix in="SourceAlpha" result="hardAlpha" values="0 0 0 0 0 0 0 0 0 0 0 0 0 0 0 0 0 0 127 0"/><feOffset dy="3.407"/><feGaussianBlur stdDeviation="1.32"/><feComposite in2="hardAlpha" operator="out"/><feColorMatrix values="0 0 0 0 0 0 0 0 0 0 0 0 0 0 0 0 0 0 0.2 0"/><feBlend in2="effect4_dropShadow_1011_6969" result="effect5_dropShadow_1011_6969"/><feBlend in="SourceGraphic" in2="effect5_dropShadow_1011_6969" result="shape"/></filter><filter id="g" width="19.487" height="20.655" x="22.487" y="7.569" color-interpolation-filters="sRGB" filterUnits="userSpaceOnUse"><feFlood flood-opacity="0" result="BackgroundImageFix"/><feColorMatrix in="SourceAlpha" result="hardAlpha" values="0 0 0 0 0 0 0 0 0 0 0 0 0 0 0 0 0 0 127 0"/><feOffset dy="-.852"/><feGaussianBlur stdDeviation="2.13"/><feComposite in2="hardAlpha" operator="out"/><feColorMatrix values="0 0 0 0 1 0 0 0 0 1 0 0 0 0 1 0 0 0 0.25 0"/><feBlend in2="BackgroundImageFix" result="effect1_dropShadow_1011_6969"/><feBlend in="SourceGraphic" in2="effect1_dropShadow_1011_6969" result="shape"/></filter><clipPath id="b"><rect width="47.917" height="47.917" x="1.042" y="1.041" fill="#fff" rx="13.63"/></clipPath></defs></svg>